SplineFontDB: 3.0
FontName: Mertz-Light
FullName: Mertz-Light
FamilyName: Mertz
Weight: Light
Copyright: vernon adams
Version: 1 
ItalicAngle: 0
UnderlinePosition: 0
UnderlineWidth: 0
Ascent: 1638
Descent: 410
UFOAscent: 1241
UFODescent: -512
LayerCount: 2
Layer: 0 0 "Back"  1
Layer: 1 0 "Fore"  0
FSType: 0
OS2Version: 0
OS2_WeightWidthSlopeOnly: 0
OS2_UseTypoMetrics: 0
CreationTime: 1337766443
ModificationTime: 1337766443
PfmFamily: 0
TTFWeight: 800
TTFWidth: 5
LineGap: 0
VLineGap: 0
Panose: 2 0 3 3 0 0 0 0 0 0
OS2TypoAscent: 1536
OS2TypoAOffset: 0
OS2TypoDescent: -512
OS2TypoDOffset: 0
OS2TypoLinegap: 0
OS2WinAscent: 1536
OS2WinAOffset: 0
OS2WinDescent: 512
OS2WinDOffset: 0
HheadAscent: 1536
HheadAOffset: 0
HheadDescent: -512
HheadDOffset: 0
OS2SubXSize: 700
OS2SubYSize: 650
OS2SubXOff: 0
OS2SubYOff: 140
OS2SupXSize: 700
OS2SupYSize: 650
OS2SupXOff: 0
OS2SupYOff: 477
OS2StrikeYSize: 50
OS2StrikeYPos: 250
OS2Vendor: 'newt'
OS2CodePages: 00000001.00000000
OS2UnicodeRanges: 00000027.00000000.00000000.00000000
Lookup: 258 0 0 "'kern' Horizontal Kerning in Latin lookup 0"  {"'kern' Horizontal Kerning in Latin lookup 0 subtable"  } ['kern' ('latn' <'dflt' > ) ]
DEI: 91125
LangName: 1033 "" "" "" "newt : Mertz-Light : 19-5-2012" "" "Version 1 " "" "" "" "" "" "" "" "" "http://scripts.sil.org/OFL" 
PickledData: "(dp1
S'com.typemytype.robofont.compileSettings.autohint'
p2
I01
sS'com.typemytype.robofont.compileSettings.decompose'
p3
I01
sS'com.typemytype.robofont.foreground.layerStrokeColor'
p4
(F0.5
F0
F0.5
F0.69999999999999996
tp5
sS'com.typemytype.robofont.compileSettings.releaseMode'
p6
I00
sS'com.typemytype.robofont.shouldAddPointsInSplineConversion'
p7
I00
sS'com.typemytype.robofont.compileSettings.checkOutlines'
p8
I01
sS'com.typemytype.robofont.back.layerStrokeColor'
p9
(F0.5
F1
F0
F0.69999999999999996
tp10
sS'com.petr.ptt'
p11
(dp12
S'originals'
p13
(dp14
S'maxp'
p15
(dp16
S'tableTag'
p17
S'maxp'
p18
sS'numGlyphs'
p19
I74
sS'tableVersion'
p20
I20480

StartChar: .notdef
Encoding: 65536 -1 0
Width: 1024
VWidth: 0
Flags: W
PickledData: "(dp1
S'com.typemytype.robofont.layerData'
p2
(dp3
S'back'
p4
(dp5
S'name'
p6
S'.notdef'
p7
sS'lib'
p8
(dp9
sS'unicodes'
p10
(tsS'width'
p11
I1024
sS'contours'
p12
(tsS'components'
p13
(tsS'anchors'
p14
(tsss."
LayerCount: 2
Fore
SplineSet
102 0 m 1
 922 0 l 1
 922 1024 l 1
 102 1024 l 1
 102 0 l 1
204 102 m 1
 204 922 l 1
 820 922 l 1
 820 102 l 1
 204 102 l 1
EndSplineSet
EndChar

StartChar: A
Encoding: 65 65 1
Width: 1284
VWidth: 0
Flags: W
PickledData: "(dp1
S'com.typemytype.robofont.layerData'
p2
(dp3
S'back'
p4
(dp5
S'name'
p6
S'A'
sS'lib'
p7
(dp8
sS'unicodes'
p9
(tsS'width'
p10
I1284
sS'contours'
p11
((dp12
S'points'
p13
((dp14
S'segmentType'
p15
S'line'
p16
sS'x'
F1108
sS'smooth'
p17
I00
sS'y'
F0
s(dp18
g15
S'line'
p19
sS'x'
F1237
sg17
I00
sS'y'
F0
s(dp20
g15
S'line'
p21
sS'x'
F1370
sg17
I00
sS'y'
F299
s(dp22
g15
S'line'
p23
sS'x'
F1946
sg17
I00
sS'y'
F299
s(dp24
g15
S'line'
p25
sS'x'
F2093
sg17
I00
sS'y'
F0
s(dp26
g15
S'line'
p27
sS'x'
F2258
sg17
I00
sS'y'
F0
s(dp28
g15
S'line'
p29
sS'x'
F1672
sg17
I00
sS'y'
F1259
stp30
s(dp31
g13
((dp32
g15
S'line'
p33
sS'x'
F1409
sg17
I00
sS'y'
F392
s(dp34
g15
S'line'
p35
sS'x'
F1671
sg17
I00
sS'y'
F1009
s(dp36
g15
S'line'
p37
sS'x'
F1919
sg17
I00
sS'y'
F392
stp38
stp39
sS'components'
p40
(tsS'anchors'
p41
(tsss."
LayerCount: 2
Fore
SplineSet
130 0 m 1
 259 0 l 1
 392 299 l 1
 973 299 l 1
 1110 0 l 1
 1237 0 l 1
 686 1259 l 1
 130 0 l 1
431 392 m 1
 685 1009 l 1
 946 392 l 1
 431 392 l 1
EndSplineSet
EndChar

StartChar: Aacute
Encoding: 193 193 2
Width: 1284
VWidth: 0
Flags: W
PickledData: "(dp1
S'com.typemytype.robofont.layerData'
p2
(dp3
S'back'
p4
(dp5
S'name'
p6
S'Aacute'
p7
sS'lib'
p8
(dp9
sS'unicodes'
p10
(tsS'width'
p11
I1284
sS'contours'
p12
(tsS'components'
p13
(tsS'anchors'
p14
(tsss."
LayerCount: 2
Fore
SplineSet
594 1448.79980469 m 2
 588.666015625 1437.5546875 586.32421875 1427.06738281 586.32421875 1417.78027344 c 0
 586.32421875 1393.48632812 602.34765625 1377.39746094 622.762695312 1377.39746094 c 0
 635.411132812 1377.39746094 649.74609375 1383.57324219 663 1397.79980469 c 2
 922 1675.79980469 l 2
 956.452148438 1712.77929688 970.459960938 1749.94921875 970.459960938 1782.29101562 c 0
 970.459960938 1838.97070312 927.435546875 1880.8203125 876.038085938 1880.8203125 c 0
 833.556640625 1880.8203125 785.35546875 1852.23242188 751 1779.79980469 c 2
 594 1448.79980469 l 2
322.021484375 60 m 1
 443.021484375 350 l 1
 841.612304688 350 l 1
 973.612304688 60 l 1
 1159.25292969 60 l 1
 635.028320312 1168.48144531 l 1
 130.250976562 60 l 1
 322.021484375 60 l 1
634.375 897.525390625 m 1
 838.448242188 414 l 1
 448.685546875 414 l 1
 634.375 897.525390625 l 1
EndSplineSet
EndChar

StartChar: Agrave
Encoding: 192 192 3
Width: 1284
VWidth: 0
Flags: W
PickledData: "(dp1
S'com.typemytype.robofont.layerData'
p2
(dp3
S'back'
p4
(dp5
S'name'
p6
S'Agrave'
p7
sS'lib'
p8
(dp9
sS'unicodes'
p10
(tsS'width'
p11
I1284
sS'contours'
p12
(tsS'components'
p13
(tsS'anchors'
p14
(tsss."
LayerCount: 2
Fore
SplineSet
674.215820312 1448.79980469 m 2
 517.215820312 1779.79980469 l 2
 483.215820312 1851.79980469 434.215820312 1880.79980469 392.215820312 1880.79980469 c 0
 341.215820312 1880.79980469 297.215820312 1838.79980469 297.215820312 1781.79980469 c 0
 297.215820312 1749.79980469 312.215820312 1712.79980469 346.215820312 1675.79980469 c 2
 605.215820312 1397.79980469 l 2
 618.215820312 1383.79980469 632.215820312 1377.79980469 645.215820312 1377.79980469 c 0
 665.215820312 1377.79980469 681.215820312 1393.79980469 681.215820312 1417.79980469 c 0
 681.215820312 1426.79980469 679.215820312 1437.79980469 674.215820312 1448.79980469 c 2
322.021484375 60 m 1
 443.021484375 350 l 1
 841.612304688 350 l 1
 973.612304688 60 l 1
 1159.25292969 60 l 1
 635.028320312 1168.48144531 l 1
 130.250976562 60 l 1
 322.021484375 60 l 1
634.375 897.525390625 m 1
 838.448242188 414 l 1
 448.685546875 414 l 1
 634.375 897.525390625 l 1
EndSplineSet
EndChar

StartChar: B
Encoding: 66 66 5
Width: 1079
VWidth: 0
Flags: W
PickledData: "(dp1
S'com.typemytype.robofont.layerData'
p2
(dp3
S'back'
p4
(dp5
S'name'
p6
S'B'
sS'lib'
p7
(dp8
sS'unicodes'
p9
(tsS'width'
p10
I1079
sS'contours'
p11
(tsS'components'
p12
(tsS'anchors'
p13
(tsss."
LayerCount: 2
Fore
SplineSet
161 0 m 1
 511 0 l 2
 840 0 998 109 998 354 c 0
 998 531 836 651 701 676 c 1
 859 712 919 842 919 938 c 0
 919 1130 781 1242 455 1242 c 2
 161 1242 l 1
 161 0 l 1
289 106 m 1
 289 622 l 1
 484 622 l 2
 723 622 876 520 876 351 c 0
 876 176 764 106 503 106 c 2
 289 106 l 1
289 728 m 1
 289 1136 l 1
 468 1136 l 2
 674 1136 806 1103 806 940 c 0
 806 726 582 728 471 728 c 2
 289 728 l 1
EndSplineSet
EndChar

StartChar: C
Encoding: 67 67 6
Width: 1287
VWidth: 0
Flags: W
PickledData: "(dp1
S'com.typemytype.robofont.layerData'
p2
(dp3
S'back'
p4
(dp5
S'name'
p6
S'C'
sS'lib'
p7
(dp8
sS'unicodes'
p9
(tsS'width'
p10
I1287
sS'contours'
p11
((dp12
S'points'
p13
((dp14
S'segmentType'
p15
S'curve'
p16
sS'x'
F653
sS'smooth'
p17
I01
sS'y'
F1168
s(dp18
S'y'
F1168
sS'x'
F938
sg17
I00
s(dp19
S'y'
F994
sS'x'
F1191
sg17
I00
s(dp20
g15
S'curve'
p21
sS'x'
F1191
sg17
I01
sS'y'
F618
s(dp22
S'y'
F246
sS'x'
F1191
sg17
I00
s(dp23
S'y'
F72
sS'x'
F911
sg17
I00
s(dp24
g15
S'curve'
p25
sS'x'
F653
sg17
I01
sS'y'
F72
s(dp26
S'y'
F72
sS'x'
F379
sg17
I00
s(dp27
S'y'
F245
sS'x'
F118
sg17
I00
s(dp28
g15
S'curve'
p29
sS'x'
F118
sg17
I01
sS'y'
F619
s(dp30
S'y'
F994
sS'x'
F118
sg17
I00
s(dp31
S'y'
F1168
sS'x'
F366
sg17
I00
stp32
s(dp33
g13
((dp34
g15
S'curve'
p35
sS'x'
F654
sg17
I01
sS'y'
F-34
s(dp36
S'y'
F-34
sS'x'
F992
sg17
I00
s(dp37
S'y'
F182
sS'x'
F1321
sg17
I00
s(dp38
g15
S'curve'
p39
sS'x'
F1321
sg17
I01
sS'y'
F623
s(dp40
S'y'
F1058
sS'x'
F1321
sg17
I00
s(dp41
S'y'
F1274
sS'x'
F992
sg17
I00
s(dp42
g15
S'curve'
p43
sS'x'
F653
sg17
I01
sS'y'
F1274
s(dp44
S'y'
F1274
sS'x'
F316
sg17
I00
s(dp45
S'y'
F1058
sS'x'
F-12
sg17
I00
s(dp46
g15
S'curve'
p47
sS'x'
F-12
sg17
I01
sS'y'
F619
s(dp48
S'y'
F182
sS'x'
F-12
sg17
I00
s(dp49
S'y'
F-34
sS'x'
F316
sg17
I00
stp50
stp51
sS'components'
p52
(tsS'anchors'
p53
(tsss."
LayerCount: 2
Fore
SplineSet
664 -34 m 0
 836 -34 994 24 1063 57 c 1
 1063 170 l 1
 953 114 798 72 673 72 c 0
 343 72 117 270 117 622 c 0
 117 976 345 1168 666 1168 c 0
 812 1168 952 1121 1063 1064 c 1
 1063 1169 l 1
 998 1208 838 1274 666 1274 c 0
 276 1274 -12 1030 -12 622 c 0
 -12 216 268 -34 664 -34 c 0
EndSplineSet
EndChar

StartChar: Ccedilla
Encoding: 199 199 7
Width: 1287
VWidth: 0
Flags: W
PickledData: "(dp1
S'com.typemytype.robofont.layerData'
p2
(dp3
S'back'
p4
(dp5
S'name'
p6
S'Ccedilla'
p7
sS'lib'
p8
(dp9
sS'unicodes'
p10
(tsS'width'
p11
I1287
sS'contours'
p12
(tsS'components'
p13
(tsS'anchors'
p14
(tsss."
LayerCount: 2
Fore
SplineSet
704 -81 m 1
 600 -111 558 -163 558 -214 c 0
 558 -291 654 -367 784 -367 c 1
 823 -299 l 1
 756 -279 695 -231 695 -191 c 0
 695 -164 722 -140 793 -131 c 1
 793 -10 l 1
 704 -10 l 1
 704 -81 l 1
749 27 m 0
 904.8984375 27 1046.84570312 78.8642578125 1110 106.215820312 c 1
 1110 248.577148438 l 1
 1010.18261719 198.177734375 893.388671875 168 780 168 c 0
 547.874023438 168 324 302.497070312 324 622 c 0
 324 942.817382812 548.497070312 1074 780 1074 c 0
 893.435546875 1074 1008.50683594 1044.66894531 1110 993.422851562 c 1
 1110 1135.78417969 l 1
 1048.35839844 1162.484375 905.087890625 1215 749 1215 c 0
 389.116210938 1215 134 991.697265625 134 622 c 0
 134 253.115234375 389.456054688 27 749 27 c 0
EndSplineSet
EndChar

StartChar: D
Encoding: 68 68 8
Width: 1398
VWidth: 0
Flags: W
PickledData: "(dp1
S'com.typemytype.robofont.layerData'
p2
(dp3
S'back'
p4
(dp5
S'name'
p6
S'D'
sS'lib'
p7
(dp8
sS'unicodes'
p9
(tsS'width'
p10
I1398
sS'contours'
p11
((dp12
S'points'
p13
((dp14
S'segmentType'
p15
S'curve'
p16
sS'x'
F654
sS'smooth'
p17
I01
sS'y'
F-34
s(dp18
S'y'
F-34
sS'x'
F992
sg17
I00
s(dp19
S'y'
F182
sS'x'
F1321
sg17
I00
s(dp20
g15
S'curve'
p21
sS'x'
F1321
sg17
I01
sS'y'
F623
s(dp22
S'y'
F1058
sS'x'
F1321
sg17
I00
s(dp23
S'y'
F1274
sS'x'
F992
sg17
I00
s(dp24
g15
S'curve'
p25
sS'x'
F653
sg17
I01
sS'y'
F1274
s(dp26
S'y'
F1274
sS'x'
F316
sg17
I00
s(dp27
S'y'
F1058
sS'x'
F-12
sg17
I00
s(dp28
g15
S'curve'
p29
sS'x'
F-12
sg17
I01
sS'y'
F619
s(dp30
S'y'
F182
sS'x'
F-12
sg17
I00
s(dp31
S'y'
F-34
sS'x'
F316
sg17
I00
stp32
s(dp33
g13
((dp34
g15
S'curve'
p35
sS'x'
F653
sg17
I01
sS'y'
F1168
s(dp36
S'y'
F1168
sS'x'
F938
sg17
I00
s(dp37
S'y'
F994
sS'x'
F1191
sg17
I00
s(dp38
g15
S'curve'
p39
sS'x'
F1191
sg17
I01
sS'y'
F618
s(dp40
S'y'
F246
sS'x'
F1191
sg17
I00
s(dp41
S'y'
F72
sS'x'
F911
sg17
I00
s(dp42
g15
S'curve'
p43
sS'x'
F653
sg17
I01
sS'y'
F72
s(dp44
S'y'
F72
sS'x'
F379
sg17
I00
s(dp45
S'y'
F245
sS'x'
F118
sg17
I00
s(dp46
g15
S'curve'
p47
sS'x'
F118
sg17
I01
sS'y'
F619
s(dp48
S'y'
F994
sS'x'
F118
sg17
I00
s(dp49
S'y'
F1168
sS'x'
F366
sg17
I00
stp50
stp51
sS'components'
p52
(tsS'anchors'
p53
(tsss."
LayerCount: 2
Fore
SplineSet
643 0 m 2
 1067 0 1298 296 1298 628 c 0
 1298 991 1086 1241 673 1241 c 2
 161 1241 l 1
 161 0 l 1
 643 0 l 2
289 1135 m 1
 675 1135 l 2
 970 1135 1169 986 1169 624 c 0
 1169 324 953 106 625 106 c 2
 289 106 l 1
 289 1135 l 1
EndSplineSet
EndChar

StartChar: E
Encoding: 69 69 9
Width: 973
VWidth: 0
Flags: W
PickledData: "(dp1
S'com.typemytype.robofont.layerData'
p2
(dp3
S'back'
p4
(dp5
S'name'
p6
S'E'
sS'lib'
p7
(dp8
sS'unicodes'
p9
(tsS'width'
p10
I973
sS'contours'
p11
((dp12
S'points'
p13
((dp14
S'segmentType'
p15
S'line'
p16
sS'x'
F198
sS'smooth'
p17
I00
sS'y'
F0
s(dp18
g15
S'line'
p19
sS'x'
F931
sg17
I00
sS'y'
F0
s(dp20
g15
S'line'
p21
sS'x'
F931
sg17
I00
sS'y'
F117
s(dp22
g15
S'line'
p23
sS'x'
F349
sg17
I00
sS'y'
F117
s(dp24
g15
S'line'
p25
sS'x'
F349
sg17
I00
sS'y'
F584
s(dp26
g15
S'line'
p27
sS'x'
F850
sg17
I00
sS'y'
F584
s(dp28
g15
S'line'
p29
sS'x'
F850
sg17
I00
sS'y'
F701
s(dp30
g15
S'line'
p31
sS'x'
F351
sg17
I00
sS'y'
F701
s(dp32
g15
S'line'
p33
sS'x'
F351
sg17
I00
sS'y'
F1122
s(dp34
g15
S'line'
p35
sS'x'
F919
sg17
I00
sS'y'
F1122
s(dp36
g15
S'line'
p37
sS'x'
F919
sg17
I00
sS'y'
F1239
s(dp38
g15
S'line'
p39
sS'x'
F198
sg17
I00
sS'y'
F1239
stp40
stp41
sS'components'
p42
(tsS'anchors'
p43
(tsss."
LayerCount: 2
Fore
SplineSet
198 0 m 1
 928 0 l 1
 928 106 l 1
 324 106 l 1
 324 588 l 1
 855 588 l 1
 855 694 l 1
 326 694 l 1
 326 1135 l 1
 918 1135 l 1
 918 1241 l 1
 198 1241 l 1
 198 0 l 1
EndSplineSet
EndChar

StartChar: Eacute
Encoding: 201 201 10
Width: 973
VWidth: 0
Flags: W
PickledData: "(dp1
S'com.typemytype.robofont.layerData'
p2
(dp3
S'back'
p4
(dp5
S'name'
p6
S'Eacute'
p7
sS'lib'
p8
(dp9
sS'unicodes'
p10
(tsS'width'
p11
I973
sS'contours'
p12
(tsS'components'
p13
(tsS'anchors'
p14
(tsss."
LayerCount: 2
Fore
SplineSet
476 1448.79980469 m 2
 470.666015625 1437.5546875 468.32421875 1427.06738281 468.32421875 1417.78027344 c 0
 468.32421875 1393.48632812 484.34765625 1377.39746094 504.762695312 1377.39746094 c 0
 517.411132812 1377.39746094 531.74609375 1383.57324219 545 1397.79980469 c 2
 804 1675.79980469 l 2
 838.452148438 1712.77929688 852.459960938 1749.94921875 852.459960938 1782.29101562 c 0
 852.459960938 1838.97070312 809.435546875 1880.8203125 758.038085938 1880.8203125 c 0
 715.556640625 1880.8203125 667.35546875 1852.23242188 633 1779.79980469 c 2
 476 1448.79980469 l 2
198 60 m 1
 811 60 l 1
 811 206 l 1
 370 206 l 1
 370 572 l 1
 735 572 l 1
 735 704 l 1
 372 704 l 1
 372 1045 l 1
 801 1045 l 1
 801 1181 l 1
 198 1181 l 1
 198 60 l 1
EndSplineSet
EndChar

StartChar: Egrave
Encoding: 200 200 11
Width: 973
VWidth: 0
Flags: W
PickledData: "(dp1
S'com.typemytype.robofont.layerData'
p2
(dp3
S'back'
p4
(dp5
S'name'
p6
S'Egrave'
p7
sS'lib'
p8
(dp9
sS'unicodes'
p10
(tsS'width'
p11
I973
sS'contours'
p12
(tsS'components'
p13
(tsS'anchors'
p14
(tsss."
LayerCount: 2
Fore
SplineSet
556.215820312 1448.79980469 m 2
 399.215820312 1779.79980469 l 2
 365.215820312 1851.79980469 316.215820312 1880.79980469 274.215820312 1880.79980469 c 0
 223.215820312 1880.79980469 179.215820312 1838.79980469 179.215820312 1781.79980469 c 0
 179.215820312 1749.79980469 194.215820312 1712.79980469 228.215820312 1675.79980469 c 2
 487.215820312 1397.79980469 l 2
 500.215820312 1383.79980469 514.215820312 1377.79980469 527.215820312 1377.79980469 c 0
 547.215820312 1377.79980469 563.215820312 1393.79980469 563.215820312 1417.79980469 c 0
 563.215820312 1426.79980469 561.215820312 1437.79980469 556.215820312 1448.79980469 c 2
198 60 m 1
 811 60 l 1
 811 206 l 1
 370 206 l 1
 370 572 l 1
 735 572 l 1
 735 704 l 1
 372 704 l 1
 372 1045 l 1
 801 1045 l 1
 801 1181 l 1
 198 1181 l 1
 198 60 l 1
EndSplineSet
EndChar

StartChar: Eogonek
Encoding: 280 280 12
Width: 973
VWidth: 0
Flags: W
PickledData: "(dp1
S'com.typemytype.robofont.layerData'
p2
(dp3
S'back'
p4
(dp5
S'name'
p6
S'Eogonek'
p7
sS'lib'
p8
(dp9
sS'unicodes'
p10
(tsS'width'
p11
I973
sS'contours'
p12
(tsS'components'
p13
(tsS'anchors'
p14
(tsss."
LayerCount: 2
Fore
SplineSet
598 0 m 1
 489 -92 448 -166 448 -225 c 0
 448 -299 513 -348 588 -376 c 1
 657 -318 l 1
 592 -263 568 -214 568 -170 c 0
 568 -109 613 -56 657 0 c 1
 598 0 l 1
198 60 m 1
 811 60 l 1
 811 206 l 1
 370 206 l 1
 370 572 l 1
 735 572 l 1
 735 704 l 1
 372 704 l 1
 372 1045 l 1
 801 1045 l 1
 801 1181 l 1
 198 1181 l 1
 198 60 l 1
EndSplineSet
EndChar

StartChar: F
Encoding: 70 70 13
Width: 931
VWidth: 0
Flags: W
PickledData: "(dp1
S'com.typemytype.robofont.layerData'
p2
(dp3
S'back'
p4
(dp5
S'name'
p6
S'F'
sS'lib'
p7
(dp8
sS'unicodes'
p9
(tsS'width'
p10
I931
sS'contours'
p11
(tsS'components'
p12
(tsS'anchors'
p13
(tsss."
LayerCount: 2
Fore
SplineSet
198 0 m 1
 326 0 l 1
 326 619 l 1
 756 619 l 1
 756 725 l 1
 326 725 l 1
 326 1135 l 1
 822 1135 l 1
 822 1241 l 1
 198 1241 l 1
 198 0 l 1
EndSplineSet
EndChar

StartChar: G
Encoding: 71 71 14
Width: 1384
VWidth: 0
Flags: W
PickledData: "(dp1
S'com.typemytype.robofont.layerData'
p2
(dp3
S'back'
p4
(dp5
S'name'
p6
S'G'
sS'lib'
p7
(dp8
sS'unicodes'
p9
(tsS'width'
p10
I1384
sS'contours'
p11
((dp12
S'points'
p13
((dp14
S'segmentType'
p15
S'curve'
p16
sS'x'
F766
sS'smooth'
p17
I01
sS'y'
F-34
s(dp18
S'y'
F-34
sS'x'
F1104
sg17
I00
s(dp19
S'y'
F182
sS'x'
F1433
sg17
I00
s(dp20
g15
S'curve'
p21
sS'x'
F1433
sg17
I01
sS'y'
F623
s(dp22
S'y'
F1058
sS'x'
F1433
sg17
I00
s(dp23
S'y'
F1274
sS'x'
F1104
sg17
I00
s(dp24
g15
S'curve'
p25
sS'x'
F765
sg17
I01
sS'y'
F1274
s(dp26
S'y'
F1274
sS'x'
F428
sg17
I00
s(dp27
S'y'
F1058
sS'x'
F100
sg17
I00
s(dp28
g15
S'curve'
p29
sS'x'
F100
sg17
I01
sS'y'
F619
s(dp30
S'y'
F182
sS'x'
F100
sg17
I00
s(dp31
S'y'
F-34
sS'x'
F428
sg17
I00
stp32
s(dp33
g13
((dp34
g15
S'curve'
p35
sS'x'
F765
sg17
I01
sS'y'
F1168
s(dp36
S'y'
F1168
sS'x'
F1050
sg17
I00
s(dp37
S'y'
F998
sS'x'
F1303
sg17
I00
s(dp38
g15
S'curve'
p39
sS'x'
F1303
sg17
I01
sS'y'
F618
s(dp40
S'y'
F242
sS'x'
F1303
sg17
I00
s(dp41
S'y'
F72
sS'x'
F1023
sg17
I00
s(dp42
g15
S'curve'
p43
sS'x'
F765
sg17
I01
sS'y'
F72
s(dp44
S'y'
F72
sS'x'
F491
sg17
I00
s(dp45
S'y'
F241
sS'x'
F230
sg17
I00
s(dp46
g15
S'curve'
p47
sS'x'
F230
sg17
I01
sS'y'
F619
s(dp48
S'y'
F998
sS'x'
F230
sg17
I00
s(dp49
S'y'
F1168
sS'x'
F478
sg17
I00
stp50
stp51
sS'components'
p52
(tsS'anchors'
p53
(tsss."
LayerCount: 2
Fore
SplineSet
759 -34 m 0
 1029 -34 1159 29 1287 102 c 1
 1287 660 l 1
 806 660 l 1
 806 555 l 1
 1168 555 l 1
 1168 158 l 1
 1168 158 1024 72 778 72 c 0
 502 72 230 241 230 621 c 0
 230 992 477 1168 781 1168 c 0
 908 1168 1046 1137 1179 1077 c 1
 1179 1187 l 1
 1111 1216 943 1274 771 1274 c 0
 404 1274 100 1025 100 621 c 0
 100 190 440 -34 759 -34 c 0
EndSplineSet
EndChar

StartChar: H
Encoding: 72 72 15
Width: 1344
VWidth: 0
Flags: W
PickledData: "(dp1
S'com.typemytype.robofont.layerData'
p2
(dp3
S'back'
p4
(dp5
S'name'
p6
S'H'
sS'lib'
p7
(dp8
sS'unicodes'
p9
(tsS'width'
p10
I1344
sS'contours'
p11
((dp12
S'points'
p13
((dp14
S'segmentType'
p15
S'line'
p16
sS'x'
F1098
sS'smooth'
p17
I00
sS'y'
F0
s(dp18
g15
S'line'
p19
sS'x'
F1098
sg17
I00
sS'y'
F1121
s(dp20
g15
S'line'
p21
sS'x'
F970
sg17
I00
sS'y'
F1121
s(dp22
g15
S'line'
p23
sS'x'
F970
sg17
I00
sS'y'
F645
s(dp24
g15
S'line'
p25
sS'x'
F289
sg17
I00
sS'y'
F645
s(dp26
g15
S'line'
p27
sS'x'
F289
sg17
I00
sS'y'
F1121
s(dp28
g15
S'line'
p29
sS'x'
F161
sg17
I00
sS'y'
F1121
s(dp30
g15
S'line'
p31
sS'x'
F161
sg17
I00
sS'y'
F0
s(dp32
g15
S'line'
p33
sS'x'
F289
sg17
I00
sS'y'
F0
s(dp34
g15
S'line'
p35
sS'x'
F289
sg17
I00
sS'y'
F546
s(dp36
g15
S'line'
p37
sS'x'
F970
sg17
I00
sS'y'
F546
s(dp38
g15
S'line'
p39
sS'x'
F970
sg17
I00
sS'y'
F0
stp40
stp41
sS'components'
p42
(tsS'anchors'
p43
(tsss."
LayerCount: 2
Fore
SplineSet
1183 0 m 1
 1183 1241 l 1
 1055 1241 l 1
 1055 704 l 1
 289 704 l 1
 289 1241 l 1
 161 1241 l 1
 161 0 l 1
 289 0 l 1
 289 603 l 1
 1055 603 l 1
 1055 0 l 1
 1183 0 l 1
EndSplineSet
EndChar

StartChar: I
Encoding: 73 73 16
Width: 586
VWidth: 0
Flags: W
PickledData: "(dp1
S'com.typemytype.robofont.layerData'
p2
(dp3
S'back'
p4
(dp5
S'name'
p6
S'I'
sS'lib'
p7
(dp8
sS'unicodes'
p9
(tsS'width'
p10
I586
sS'contours'
p11
(tsS'components'
p12
(tsS'anchors'
p13
(tsss."
LayerCount: 2
Fore
SplineSet
386 0 m 1
 386 1241 l 1
 258 1241 l 1
 258 0 l 1
 386 0 l 1
EndSplineSet
EndChar

StartChar: J
Encoding: 74 74 17
Width: 988
VWidth: 0
Flags: W
PickledData: "(dp1
S'com.typemytype.robofont.layerData'
p2
(dp3
S'back'
p4
(dp5
S'name'
p6
S'J'
sS'lib'
p7
(dp8
sS'unicodes'
p9
(tsS'width'
p10
I988
sS'contours'
p11
(tsS'components'
p12
(tsS'anchors'
p13
(tsss."
LayerCount: 2
Fore
SplineSet
409 -16 m 0
 670 -16 753 124 753 446 c 2
 753 1242 l 1
 625 1242 l 1
 625 429 l 2
 625 166 546 88 409 88 c 0
 342 88 271 106 173 151 c 1
 173 47 l 1
 204 31 292 -16 409 -16 c 0
EndSplineSet
EndChar

StartChar: K
Encoding: 75 75 18
Width: 1105
VWidth: 0
Flags: W
PickledData: "(dp1
S'com.typemytype.robofont.layerData'
p2
(dp3
S'back'
p4
(dp5
S'name'
p6
S'K'
sS'lib'
p7
(dp8
sS'unicodes'
p9
(tsS'width'
p10
I1105
sS'contours'
p11
(tsS'components'
p12
(tsS'anchors'
p13
(tsss."
LayerCount: 2
Fore
SplineSet
289 618 m 1
 922 0 l 1
 1083 0 l 1
 424 642 l 1
 1036 1241 l 1
 879 1241 l 1
 289 668 l 1
 289 1241 l 1
 161 1241 l 1
 161 0 l 1
 289 0 l 1
 289 618 l 1
EndSplineSet
EndChar

StartChar: L
Encoding: 76 76 19
Width: 1009
VWidth: 0
Flags: W
PickledData: "(dp1
S'com.typemytype.robofont.layerData'
p2
(dp3
S'back'
p4
(dp5
S'name'
p6
S'L'
sS'lib'
p7
(dp8
sS'unicodes'
p9
(tsS'width'
p10
I1009
sS'contours'
p11
(tsS'components'
p12
(tsS'anchors'
p13
(tsss."
LayerCount: 2
Fore
SplineSet
198 1241 m 1
 198 0 l 1
 871 0 l 1
 871 106 l 1
 326 106 l 1
 326 1241 l 1
 198 1241 l 1
EndSplineSet
EndChar

StartChar: M
Encoding: 77 77 20
Width: 1697
VWidth: 0
Flags: W
PickledData: "(dp1
S'com.typemytype.robofont.layerData'
p2
(dp3
S'back'
p4
(dp5
S'name'
p6
S'M'
sS'lib'
p7
(dp8
sS'unicodes'
p9
(tsS'width'
p10
I1697
sS'contours'
p11
((dp12
S'points'
p13
((dp14
S'segmentType'
p15
S'line'
p16
sS'x'
F298
sS'smooth'
p17
I00
sS'y'
F1277
s(dp18
g15
S'line'
p19
sS'x'
F94
sg17
I00
sS'y'
F0
s(dp20
g15
S'line'
p21
sS'x'
F243
sg17
I00
sS'y'
F0
s(dp22
g15
S'line'
p23
sS'x'
F374
sg17
I00
sS'y'
F873
s(dp24
g15
S'line'
p25
sS'x'
F849
sg17
I00
sS'y'
F28
s(dp26
g15
S'line'
p27
sS'x'
F1323
sg17
I00
sS'y'
F873
s(dp28
g15
S'line'
p29
sS'x'
F1454
sg17
I00
sS'y'
F0
s(dp30
g15
S'line'
p31
sS'x'
F1603
sg17
I00
sS'y'
F0
s(dp32
g15
S'line'
p33
sS'x'
F1399
sg17
I00
sS'y'
F1277
s(dp34
g15
S'line'
p35
sS'x'
F849
sg17
I00
sS'y'
F300
stp36
stp37
sS'components'
p38
(tsS'anchors'
p39
(tsss."
LayerCount: 2
Fore
SplineSet
94 0 m 1
 225 0 l 1
 364 902 l 1
 849 28 l 1
 1333 902 l 1
 1472 0 l 1
 1603 0 l 1
 1399 1275 l 1
 848 266 l 1
 298 1275 l 1
 94 0 l 1
EndSplineSet
EndChar

StartChar: N
Encoding: 78 78 21
Width: 1367
VWidth: 0
Flags: W
PickledData: "(dp1
S'com.typemytype.robofont.layerData'
p2
(dp3
S'back'
p4
(dp5
S'name'
p6
S'N'
sS'lib'
p7
(dp8
sS'unicodes'
p9
(tsS'width'
p10
I1367
sS'contours'
p11
(tsS'components'
p12
(tsS'anchors'
p13
(tsss."
LayerCount: 2
Fore
SplineSet
1206 -31 m 1
 1206 1241 l 1
 1078 1241 l 1
 1078 270 l 1
 161 1263 l 1
 161 0 l 1
 289 0 l 1
 289 956 l 1
 1206 -31 l 1
EndSplineSet
EndChar

StartChar: O
Encoding: 79 79 22
Width: 1533
VWidth: 0
Flags: W
PickledData: "(dp1
S'com.typemytype.robofont.guides'
p2
((dp3
S'angle'
p4
I0
sS'name'
p5
NsS'magnetic'
p6
I5
sS'isGlobal'
p7
I00
sS'y'
I619
sS'x'
I287
s(dp8
g4
F90
sg5
Nsg6
I5
sg7
I00
sS'y'
I1284
sS'x'
I797
stp9
sS'com.typemytype.robofont.layerData'
p10
(dp11
S'back'
p12
(dp13
g5
S'O'
sS'lib'
p14
(dp15
sS'unicodes'
p16
(tsS'width'
p17
I1533
sS'contours'
p18
((dp19
S'points'
p20
((dp21
S'segmentType'
p22
S'curve'
p23
sS'x'
F766
sS'smooth'
p24
I01
sS'y'
F1169
s(dp25
S'y'
F1169
sS'x'
F1026
sg24
I00
s(dp26
S'y'
F996
sS'x'
F1244
sg24
I00
s(dp27
g22
S'curve'
p28
sS'x'
F1244
sg24
I01
sS'y'
F678
s(dp29
S'y'
F363
sS'x'
F1244
sg24
I00
s(dp30
S'y'
F193
sS'x'
F1025
sg24
I00
s(dp31
g22
S'curve'
p32
sS'x'
F765
sg24
I01
sS'y'
F193
s(dp33
S'y'
F193
sS'x'
F506
sg24
I00
s(dp34
S'y'
F362
sS'x'
F288
sg24
I00
s(dp35
g22
S'curve'
p36
sS'x'
F288
sg24
I01
sS'y'
F679
s(dp37
S'y'
F996
sS'x'
F288
sg24
I00
s(dp38
S'y'
F1169
sS'x'
F505
sg24
I00
stp39
s(dp40
g20
((dp41
g22
S'curve'
p42
sS'x'
F765
sg24
I01
sS'y'
F85
s(dp43
S'y'
F85
sS'x'
F1072
sg24
I00
s(dp44
S'y'
F281
sS'x'
F1372
sg24
I00
s(dp45
g22
S'curve'
p46
sS'x'
F1372
sg24
I01
sS'y'
F682
s(dp47
S'y'
F1078
sS'x'
F1372
sg24
I00
s(dp48
S'y'
F1274
sS'x'
F1072
sg24
I00
s(dp49
g22
S'curve'
p50
sS'x'
F764
sg24
I01
sS'y'
F1274
s(dp51
S'y'
F1274
sS'x'
F457
sg24
I00
s(dp52
S'y'
F1078
sS'x'
F158
sg24
I00
s(dp53
g22
S'curve'
p54
sS'x'
F158
sg24
I01
sS'y'
F679
s(dp55
S'y'
F281
sS'x'
F158
sg24
I00
s(dp56
S'y'
F85
sS'x'
F457
sg24
I00
stp57
stp58
sS'components'
p59
(tsS'anchors'
p60
(tsss."
LayerCount: 2
Fore
SplineSet
765 1168 m 0
 1050 1168 1303 994 1303 618 c 0
 1303 246 1023 72 765 72 c 0
 491 72 230 245 230 619 c 0
 230 994 478 1168 765 1168 c 0
766 -34 m 0
 1104 -34 1433 182 1433 623 c 0
 1433 1058 1104 1274 765 1274 c 0
 428 1274 100 1058 100 619 c 0
 100 182 428 -34 766 -34 c 0
EndSplineSet
EndChar

StartChar: Oslash
Encoding: 216 216 23
Width: 1533
VWidth: 0
Flags: W
PickledData: "(dp1
S'com.typemytype.robofont.layerData'
p2
(dp3
s."
LayerCount: 2
Fore
SplineSet
1184 1315 m 1
 319 -42 l 1
 385 -83 l 1
 1250 1274 l 1
 1184 1315 l 1
EndSplineSet
Refer: 22 79 N 1 0 0 1 0 0 2
EndChar

StartChar: P
Encoding: 80 80 24
Width: 1063
VWidth: 0
Flags: W
PickledData: "(dp1
S'com.typemytype.robofont.layerData'
p2
(dp3
S'back'
p4
(dp5
S'name'
p6
S'P'
sS'lib'
p7
(dp8
sS'unicodes'
p9
(tsS'width'
p10
I1063
sS'contours'
p11
(tsS'components'
p12
(tsS'anchors'
p13
(tsss."
LayerCount: 2
Fore
SplineSet
345 525 m 1
 534 525 l 2
 815 525 1013 606 1013 887 c 0
 1013 1127 841 1242 538 1242 c 2
 217 1242 l 1
 217 0 l 1
 345 0 l 1
 345 525 l 1
885 882 m 0
 885 691 754 627 548 627 c 2
 345 627 l 1
 345 1140 l 1
 543 1140 l 2
 796 1140 885 1032 885 882 c 0
EndSplineSet
EndChar

StartChar: Q
Encoding: 81 81 25
Width: 1533
VWidth: 0
Flags: W
PickledData: "(dp1
S'com.typemytype.robofont.guides'
p2
((dp3
S'angle'
p4
I0
sS'name'
p5
NsS'magnetic'
p6
I5
sS'isGlobal'
p7
I00
sS'y'
I560
sS'x'
I132
s(dp8
g4
F90
sg5
Nsg6
I5
sg7
I00
sS'y'
I-37
sS'x'
I739
stp9
sS'com.typemytype.robofont.layerData'
p10
(dp11
S'back'
p12
(dp13
g5
S'Q'
sS'lib'
p14
(dp15
sS'unicodes'
p16
(tsS'width'
p17
I1533
sS'contours'
p18
(tsS'components'
p19
(tsS'anchors'
p20
(tsss."
LayerCount: 2
Fore
SplineSet
977 267 m 1
 911 193 l 1
 1243 -148 l 1
 1352 -64 l 1
 977 267 l 1
EndSplineSet
Refer: 22 79 N 1 0 0 1 0 0 2
EndChar

StartChar: R
Encoding: 82 82 26
Width: 1063
VWidth: 0
Flags: W
PickledData: "(dp1
S'com.typemytype.robofont.layerData'
p2
(dp3
S'back'
p4
(dp5
S'name'
p6
S'R'
sS'lib'
p7
(dp8
sS'unicodes'
p9
(tsS'width'
p10
I1063
sS'contours'
p11
((dp12
S'points'
p13
((dp14
S'segmentType'
p15
S'line'
p16
sS'x'
F345
sS'smooth'
p17
I00
sS'y'
F525
s(dp18
g15
S'line'
p19
sS'x'
F534
sg17
I01
sS'y'
F525
s(dp20
S'y'
F525
sS'x'
F815
sg17
I00
s(dp21
S'y'
F606
sS'x'
F1013
sg17
I00
s(dp22
g15
S'curve'
p23
sS'x'
F1013
sg17
I01
sS'y'
F887
s(dp24
S'y'
F1127
sS'x'
F1013
sg17
I00
s(dp25
S'y'
F1242
sS'x'
F841
sg17
I00
s(dp26
g15
S'curve'
p27
sS'x'
F538
sg17
I01
sS'y'
F1242
s(dp28
g15
S'line'
p29
sS'x'
F217
sg17
I00
sS'y'
F1242
s(dp30
g15
S'line'
p31
sS'x'
F217
sg17
I00
sS'y'
F0
s(dp32
g15
S'line'
p33
sS'x'
F345
sg17
I00
sS'y'
F0
stp34
s(dp35
g13
((dp36
g15
S'curve'
p37
sS'x'
F885
sg17
I01
sS'y'
F882
s(dp38
S'y'
F691
sS'x'
F885
sg17
I00
s(dp39
S'y'
F627
sS'x'
F754
sg17
I00
s(dp40
g15
S'curve'
p41
sS'x'
F548
sg17
I01
sS'y'
F627
s(dp42
g15
S'line'
p43
sS'x'
F345
sg17
I00
sS'y'
F627
s(dp44
g15
S'line'
p45
sS'x'
F345
sg17
I00
sS'y'
F1140
s(dp46
g15
S'line'
p47
sS'x'
F543
sg17
I01
sS'y'
F1140
s(dp48
S'y'
F1140
sS'x'
F796
sg17
I00
s(dp49
S'y'
F1032
sS'x'
F885
sg17
I00
stp50
s(dp51
g13
((dp52
g15
S'line'
p53
sS'x'
F541
sg17
I00
sS'y'
F559
s(dp54
g15
S'line'
p55
sS'x'
F423
sg17
I00
sS'y'
F531
s(dp56
g15
S'line'
p57
sS'x'
F879
sg17
I00
sS'y'
F0
s(dp58
g15
S'line'
p59
sS'x'
F1038
sg17
I00
sS'y'
F0
stp60
stp61
sS'components'
p62
(tsS'anchors'
p63
(tsss."
LayerCount: 2
Fore
SplineSet
217 0 m 1
 345 0 l 1
 345 575 l 1
 388 575 l 1
 881 0 l 1
 1038 0 l 1
 528 576 l 1
 785 584 971 667 971 913 c 0
 971 1134 803 1241 500 1241 c 2
 217 1241 l 1
 217 0 l 1
345 677 m 1
 345 1140 l 1
 505 1140 l 2
 758 1140 843 1058 843 908 c 0
 843 717 688 677 460 677 c 2
 345 677 l 1
EndSplineSet
EndChar

StartChar: S
Encoding: 83 83 27
Width: 956
VWidth: 0
Flags: W
PickledData: "(dp1
S'com.typemytype.robofont.layerData'
p2
(dp3
S'back'
p4
(dp5
S'name'
p6
S'S'
sS'lib'
p7
(dp8
sS'unicodes'
p9
(tsS'width'
p10
I956
sS'contours'
p11
((dp12
S'points'
p13
((dp14
S'segmentType'
p15
S'curve'
p16
sS'x'
F528
sS'smooth'
p17
I01
sS'y'
F-34
s(dp18
S'y'
F-34
sS'x'
F866
sg17
I00
s(dp19
S'y'
F182
sS'x'
F1195
sg17
I00
s(dp20
g15
S'curve'
p21
sS'x'
F1195
sg17
I01
sS'y'
F623
s(dp22
S'y'
F1058
sS'x'
F1195
sg17
I00
s(dp23
S'y'
F1274
sS'x'
F866
sg17
I00
s(dp24
g15
S'curve'
p25
sS'x'
F527
sg17
I01
sS'y'
F1274
s(dp26
S'y'
F1274
sS'x'
F190
sg17
I00
s(dp27
S'y'
F1058
sS'x'
F-138
sg17
I00
s(dp28
g15
S'curve'
p29
sS'x'
F-138
sg17
I01
sS'y'
F619
s(dp30
S'y'
F182
sS'x'
F-138
sg17
I00
s(dp31
S'y'
F-34
sS'x'
F190
sg17
I00
stp32
s(dp33
g13
((dp34
g15
S'curve'
p35
sS'x'
F527
sg17
I01
sS'y'
F1168
s(dp36
S'y'
F1168
sS'x'
F812
sg17
I00
s(dp37
S'y'
F994
sS'x'
F1065
sg17
I00
s(dp38
g15
S'curve'
p39
sS'x'
F1065
sg17
I01
sS'y'
F618
s(dp40
S'y'
F246
sS'x'
F1065
sg17
I00
s(dp41
S'y'
F72
sS'x'
F785
sg17
I00
s(dp42
g15
S'curve'
p43
sS'x'
F527
sg17
I01
sS'y'
F72
s(dp44
S'y'
F72
sS'x'
F253
sg17
I00
s(dp45
S'y'
F245
sS'x'
F-8
sg17
I00
s(dp46
g15
S'curve'
p47
sS'x'
F-8
sg17
I01
sS'y'
F619
s(dp48
S'y'
F994
sS'x'
F-8
sg17
I00
s(dp49
S'y'
F1168
sS'x'
F240
sg17
I00
stp50
stp51
sS'components'
p52
(tsS'anchors'
p53
(tsss."
LayerCount: 2
Fore
SplineSet
138 69 m 1
 193 36 306 -34 508 -34 c 0
 699 -34 883 63 883 281 c 0
 883 398 825 493 644 607 c 1
 381 770 l 1
 291 827 229 891 229 975 c 0
 229 1082 313 1168 504 1168 c 0
 606 1168 725 1137 818 1088 c 1
 818 1202 l 1
 761 1229 644 1274 490 1274 c 0
 235 1274 106 1136 106 968 c 0
 106 852 191 758 310 685 c 2
 584 515 l 1
 699 445 758 359 758 274 c 0
 758 156 674 73 505 73 c 0
 350 73 235 115 138 180 c 1
 138 69 l 1
EndSplineSet
EndChar

StartChar: T
Encoding: 84 84 28
Width: 1122
VWidth: 0
Flags: W
PickledData: "(dp1
S'com.typemytype.robofont.layerData'
p2
(dp3
S'back'
p4
(dp5
S'name'
p6
S'T'
sS'lib'
p7
(dp8
sS'unicodes'
p9
(tsS'width'
p10
I1122
sS'contours'
p11
(tsS'components'
p12
(tsS'anchors'
p13
(tsss."
LayerCount: 2
Fore
SplineSet
621 0 m 1
 621 1135 l 1
 1016 1135 l 1
 1016 1241 l 1
 98 1241 l 1
 98 1135 l 1
 493 1135 l 1
 493 0 l 1
 621 0 l 1
EndSplineSet
EndChar

StartChar: Thorn
Encoding: 222 222 29
Width: 1063
VWidth: 0
Flags: W
PickledData: "(dp1
S'com.typemytype.robofont.layerData'
p2
(dp3
s."
LayerCount: 2
Fore
SplineSet
345 0 m 1
 345 291 l 1
 534 291 l 2
 815 291 1013 372 1013 653 c 0
 1013 893 841 1007 538 1007 c 2
 345 1007 l 1
 345 1241 l 1
 217 1241 l 1
 217 0 l 1
 345 0 l 1
885 648 m 0
 885 457 754 393 548 393 c 2
 345 393 l 1
 345 905 l 1
 543 905 l 2
 796 905 885 798 885 648 c 0
EndSplineSet
EndChar

StartChar: U
Encoding: 85 85 30
Width: 1402
VWidth: 0
Flags: W
PickledData: "(dp1
S'com.typemytype.robofont.layerData'
p2
(dp3
S'back'
p4
(dp5
S'name'
p6
S'U'
sS'lib'
p7
(dp8
sS'unicodes'
p9
(tsS'width'
p10
I1402
sS'contours'
p11
(tsS'components'
p12
(tsS'anchors'
p13
(tsss."
LayerCount: 2
Fore
SplineSet
690 -33 m 0
 1007 -33 1238 142 1238 493 c 2
 1238 1241 l 1
 1110 1241 l 1
 1110 480 l 2
 1110 193 941 73 690 73 c 0
 439 73 270 193 270 480 c 2
 270 1241 l 1
 142 1241 l 1
 142 493 l 2
 142 142 373 -33 690 -33 c 0
EndSplineSet
EndChar

StartChar: V
Encoding: 86 86 31
Width: 1264
VWidth: 0
Flags: W
PickledData: "(dp1
S'com.typemytype.robofont.layerData'
p2
(dp3
S'back'
p4
(dp5
S'name'
p6
S'V'
sS'lib'
p7
(dp8
sS'unicodes'
p9
(tsS'width'
p10
I1264
sS'contours'
p11
(tsS'components'
p12
(tsS'anchors'
p13
(tsss."
LayerCount: 2
Fore
SplineSet
190 1241 m 1
 53 1241 l 1
 644 -18 l 1
 1211 1241 l 1
 1068 1241 l 1
 643 268 l 1
 190 1241 l 1
EndSplineSet
EndChar

StartChar: W
Encoding: 87 87 32
Width: 1757
VWidth: 0
Flags: W
PickledData: "(dp1
S'com.typemytype.robofont.layerData'
p2
(dp3
S'back'
p4
(dp5
S'name'
p6
S'W'
sS'lib'
p7
(dp8
sS'unicodes'
p9
(tsS'width'
p10
I1757
sS'contours'
p11
(tsS'components'
p12
(tsS'anchors'
p13
(tsss."
LayerCount: 2
Fore
SplineSet
786 1222 m 1
 446 300 l 1
 76 1241 l 1
 -61 1241 l 1
 453 -20 l 1
 788 901 l 1
 1158 -19 l 1
 1637 1241 l 1
 1494 1241 l 1
 1152 300 l 1
 786 1222 l 1
EndSplineSet
EndChar

StartChar: X
Encoding: 88 88 33
Width: 1519
VWidth: 0
Flags: W
PickledData: "(dp1
S'com.typemytype.robofont.layerData'
p2
(dp3
S'back'
p4
(dp5
S'name'
p6
S'X'
sS'lib'
p7
(dp8
sS'unicodes'
p9
(tsS'width'
p10
I1519
sS'contours'
p11
((dp12
S'points'
p13
((dp14
S'segmentType'
p15
S'line'
p16
sS'x'
F200
sS'smooth'
p17
I00
sS'y'
F2
s(dp18
g15
S'line'
p19
sS'x'
F760
sg17
I00
sS'y'
F562
s(dp20
g15
S'line'
p21
sS'x'
F1336
sg17
I00
sS'y'
F0
s(dp22
g15
S'line'
p23
sS'x'
F1497
sg17
I00
sS'y'
F0
s(dp24
g15
S'line'
p25
sS'x'
F838
sg17
I00
sS'y'
F642
s(dp26
g15
S'line'
p27
sS'x'
F1450
sg17
I00
sS'y'
F1241
s(dp28
g15
S'line'
p29
sS'x'
F1293
sg17
I00
sS'y'
F1241
s(dp30
g15
S'line'
p31
sS'x'
F756
sg17
I00
sS'y'
F719
s(dp32
g15
S'line'
p33
sS'x'
F201
sg17
I00
sS'y'
F1240
s(dp34
g15
S'line'
p35
sS'x'
F29
sg17
I00
sS'y'
F1240
s(dp36
g15
S'line'
p37
sS'x'
F686
sg17
I00
sS'y'
F642
s(dp38
g15
S'line'
p39
sS'x'
F27
sg17
I00
sS'y'
F2
stp40
stp41
sS'components'
p42
(tsS'anchors'
p43
(tsss."
LayerCount: 2
Fore
SplineSet
1502 0 m 1
 354 1241 l 1
 211 1241 l 1
 1350 0 l 1
 1502 0 l 1
369 0 m 1
 1450 1241 l 1
 1293 1241 l 1
 207 0 l 1
 369 0 l 1
EndSplineSet
EndChar

StartChar: Y
Encoding: 89 89 34
Width: 1259
VWidth: 0
Flags: W
PickledData: "(dp1
S'com.typemytype.robofont.layerData'
p2
(dp3
S'back'
p4
(dp5
S'name'
p6
S'Y'
sS'lib'
p7
(dp8
sS'unicodes'
p9
(tsS'width'
p10
I1259
sS'contours'
p11
(tsS'components'
p12
(tsS'anchors'
p13
(tsss."
LayerCount: 2
Fore
SplineSet
272 1241 m 1
 143 1241 l 1
 570 479 l 1
 570 0 l 1
 698 0 l 1
 698 475 l 1
 1112 1241 l 1
 976 1241 l 1
 636 592 l 1
 272 1241 l 1
EndSplineSet
EndChar

StartChar: Z
Encoding: 90 90 35
Width: 1059
VWidth: 0
Flags: W
PickledData: "(dp1
S'com.typemytype.robofont.layerData'
p2
(dp3
S'back'
p4
(dp5
S'name'
p6
S'Z'
sS'lib'
p7
(dp8
sS'unicodes'
p9
(tsS'width'
p10
I1059
sS'contours'
p11
(tsS'components'
p12
(tsS'anchors'
p13
(tsss."
LayerCount: 2
Fore
SplineSet
117 0 m 1
 907 0 l 1
 907 106 l 1
 313 106 l 1
 899 1241 l 1
 150 1241 l 1
 150 1135 l 1
 712 1135 l 1
 117 0 l 1
EndSplineSet
EndChar

StartChar: a
Encoding: 97 97 36
Width: 899
VWidth: 0
Flags: W
PickledData: "(dp1
S'com.typemytype.robofont.layerData'
p2
(dp3
S'back'
p4
(dp5
S'name'
p6
S'a'
sS'lib'
p7
(dp8
g6
S'o'
sS'unicodes'
p9
(tsS'width'
p10
I1146
sS'contours'
p11
(tsS'components'
p12
(tsS'anchors'
p13
(tssg9
(tsg10
I899
sg11
((dp14
S'points'
p15
((dp16
S'segmentType'
p17
S'curve'
p18
sS'x'
F434
sS'smooth'
p19
I01
sS'y'
F81
s(dp20
S'y'
F81
sS'x'
F650
sg19
I00
s(dp21
S'y'
F244
sS'x'
F760
sg19
I00
s(dp22
g17
S'curve'
p23
sS'x'
F760
sg19
I01
sS'y'
F409
s(dp24
S'y'
F575
sS'x'
F760
sg19
I00
s(dp25
S'y'
F742
sS'x'
F646
sg19
I00
s(dp26
g17
S'curve'
p27
sS'x'
F434
sg19
I01
sS'y'
F742
s(dp28
S'y'
F742
sS'x'
F222
sg19
I00
s(dp29
S'y'
F576
sS'x'
F108
sg19
I00
s(dp30
g17
S'curve'
p31
sS'x'
F108
sg19
I01
sS'y'
F410
s(dp32
S'y'
F245
sS'x'
F108
sg19
I00
s(dp33
S'y'
F81
sS'x'
F218
sg19
I00
stp34
s(dp35
g15
((dp36
g17
S'curve'
p37
sS'x'
F879
sg19
I01
sS'y'
F408
s(dp38
S'y'
F139
sS'x'
F879
sg19
I00
s(dp39
S'y'
F-16
sS'x'
F666
sg19
I00
s(dp40
g17
S'curve'
p41
sS'x'
F433
sg19
I01
sS'y'
F-16
s(dp42
S'y'
F-16
sS'x'
F201
sg19
I00
s(dp43
S'y'
F138
sS'x'
F-11
sg19
I00
s(dp44
g17
S'curve'
p45
sS'x'
F-11
sg19
I01
sS'y'
F408
s(dp46
S'y'
F682
sS'x'
F-11
sg19
I00
s(dp47
S'y'
F840
sS'x'
F202
sg19
I00
s(dp48
g17
S'curve'
p49
sS'x'
F435
sg19
I01
sS'y'
F840
s(dp50
S'y'
F840
sS'x'
F652
sg19
I00
s(dp51
S'y'
F683
sS'x'
F879
sg19
I00
stp52
stp53
sg12
(tsg13
(tsss."
LayerCount: 2
Fore
SplineSet
387 79 m 0
 303 79 255 137 255 208 c 0
 255 270 276 340 419 374 c 2
 600 418 l 1
 600 177 l 1
 552 125 472 79 387 79 c 0
368 -16 m 0
 415 -16 510 -15 624 100 c 1
 624 100 661 -7 808 -7 c 1
 807 -7 808 -7 813 -7 c 1
 839 99 l 1
 824 99 l 2
 780 99 728 134 728 209 c 2
 728 572 l 2
 728 760 582 840 439 840 c 0
 303 840 185 790 132 760 c 1
 168 670 l 1
 226 699 325 742 410 742 c 0
 499 742 601 723 601 545 c 2
 601 500 l 1
 433 462 l 2
 140 396 128 266 128 193 c 0
 128 68 233 -16 368 -16 c 0
EndSplineSet
EndChar

StartChar: acute
Encoding: 180 180 37
Width: 370
VWidth: 0
Flags: W
PickledData: "(dp1
S'com.typemytype.robofont.layerData'
p2
(dp3
S'back'
p4
(dp5
S'name'
p6
S'acute'
p7
sS'lib'
p8
(dp9
sS'unicodes'
p10
(tsS'width'
p11
I370
sS'contours'
p12
(tsS'components'
p13
(tsS'anchors'
p14
(tsss."
LayerCount: 2
Fore
SplineSet
14 121 m 2
 11 115 10 110 10 106 c 0
 10 94 18 86 28 86 c 0
 35 86 42 90 49 98 c 2
 289 381 l 2
 301 395 306 409 306 422 c 0
 306 454 274 481 241 481 c 0
 219 481 196 469 181 441 c 2
 14 121 l 2
EndSplineSet
EndChar

StartChar: b
Encoding: 98 98 39
Width: 1074
VWidth: 0
Flags: W
PickledData: "(dp1
S'com.typemytype.robofont.layerData'
p2
(dp3
S'back'
p4
(dp5
S'name'
p6
S'b'
sS'lib'
p7
(dp8
sS'unicodes'
p9
(tsS'width'
p10
F1074
sS'contours'
p11
(tsS'components'
p12
(tsS'anchors'
p13
(tsss."
LayerCount: 2
Fore
SplineSet
500 -16 m 0
 786 -16 966 154 966 411 c 0
 966 650 811 840 576 840 c 0
 397 840 293 752 293 752 c 1
 293 1242 l 1
 165 1220 l 1
 165 43 l 1
 290 4 405 -16 500 -16 c 0
502 81 m 0
 406 81 332 99 293 108 c 1
 293 657 l 1
 293 657 437 742 562 742 c 0
 766 742 839 569 839 402 c 0
 839 191 694 81 502 81 c 0
EndSplineSet
EndChar

StartChar: bracketleft
Encoding: 91 91 40
Width: 1122
VWidth: 0
Flags: W
PickledData: "(dp1
S'com.typemytype.robofont.layerData'
p2
(dp3
S'back'
p4
(dp5
S'name'
p6
S'bracketleft'
p7
sS'lib'
p8
(dp9
sS'unicodes'
p10
(tsS'width'
p11
I1122
sS'contours'
p12
(tsS'components'
p13
(tsS'anchors'
p14
(tsss."
LayerCount: 2
Fore
SplineSet
621 0 m 1
 621 1135 l 1
 1016 1135 l 1
 1016 1241 l 1
 493 1241 l 1
 493 0 l 1
 621 0 l 1
EndSplineSet
EndChar

StartChar: c
Encoding: 99 99 41
Width: 896
VWidth: 0
Flags: W
PickledData: "(dp1
S'com.typemytype.robofont.layerData'
p2
(dp3
S'back'
p4
(dp5
S'name'
p6
S'c'
sS'lib'
p7
(dp8
g6
S'o'
sS'unicodes'
p9
(tsS'width'
p10
I1146
sS'contours'
p11
(tsS'components'
p12
(tsS'anchors'
p13
(tssg9
(tsg10
I896
sg11
((dp14
S'points'
p15
((dp16
S'segmentType'
p17
S'curve'
p18
sS'x'
F553
sS'smooth'
p19
I01
sS'y'
F81
s(dp20
S'y'
F81
sS'x'
F769
sg19
I00
s(dp21
S'y'
F244
sS'x'
F879
sg19
I00
s(dp22
g17
S'curve'
p23
sS'x'
F879
sg19
I01
sS'y'
F409
s(dp24
S'y'
F575
sS'x'
F879
sg19
I00
s(dp25
S'y'
F742
sS'x'
F765
sg19
I00
s(dp26
g17
S'curve'
p27
sS'x'
F553
sg19
I01
sS'y'
F742
s(dp28
S'y'
F742
sS'x'
F341
sg19
I00
s(dp29
S'y'
F576
sS'x'
F227
sg19
I00
s(dp30
g17
S'curve'
p31
sS'x'
F227
sg19
I01
sS'y'
F410
s(dp32
S'y'
F245
sS'x'
F227
sg19
I00
s(dp33
S'y'
F81
sS'x'
F337
sg19
I00
stp34
s(dp35
g15
((dp36
g17
S'curve'
p37
sS'x'
F998
sg19
I01
sS'y'
F408
s(dp38
S'y'
F139
sS'x'
F998
sg19
I00
s(dp39
S'y'
F-16
sS'x'
F785
sg19
I00
s(dp40
g17
S'curve'
p41
sS'x'
F552
sg19
I01
sS'y'
F-16
s(dp42
S'y'
F-16
sS'x'
F320
sg19
I00
s(dp43
S'y'
F138
sS'x'
F108
sg19
I00
s(dp44
g17
S'curve'
p45
sS'x'
F108
sg19
I01
sS'y'
F408
s(dp46
S'y'
F682
sS'x'
F108
sg19
I00
s(dp47
S'y'
F840
sS'x'
F321
sg19
I00
s(dp48
g17
S'curve'
p49
sS'x'
F554
sg19
I01
sS'y'
F840
s(dp50
S'y'
F840
sS'x'
F771
sg19
I00
s(dp51
S'y'
F683
sS'x'
F998
sg19
I00
stp52
stp53
sg12
(tsg13
(tsss."
LayerCount: 2
Fore
SplineSet
108 413 m 0
 108 163 284 -16 570 -16 c 0
 683 -16 764 20 805 43 c 1
 805 146 l 1
 779 132 686 81 563 81 c 0
 332 81 228 235 228 414 c 0
 228 583 343 742 569 742 c 0
 712 742 794 694 805 688 c 1
 805 783 l 1
 786 795 695 840 566 840 c 0
 298 840 108 668 108 413 c 0
EndSplineSet
EndChar

StartChar: caron
Encoding: 711 711 42
Width: 370
VWidth: 0
Flags: W
PickledData: "(dp1
S'com.typemytype.robofont.layerData'
p2
(dp3
S'back'
p4
(dp5
S'name'
p6
S'caron'
p7
sS'lib'
p8
(dp9
sS'unicodes'
p10
(tsS'width'
p11
I370
sS'contours'
p12
(tsS'components'
p13
(tsS'anchors'
p14
(tsss."
LayerCount: 2
Fore
SplineSet
242 86 m 0
 267 86 291 104 303 126 c 2
 470 446 l 2
 473 452 474 457 474 461 c 0
 474 473 466 481 456 481 c 0
 449 481 442 477 435 469 c 2
 242 241 l 1
 49 469 l 2
 42 477 35 481 28 481 c 0
 18 481 10 473 10 461 c 0
 10 457 11 452 14 446 c 2
 181 126 l 2
 192 105 217 86 242 86 c 0
EndSplineSet
EndChar

StartChar: cedilla
Encoding: 184 184 44
Width: 424
VWidth: 0
Flags: W
PickledData: "(dp1
S'com.typemytype.robofont.layerData'
p2
(dp3
S'back'
p4
(dp5
S'name'
p6
S'cedilla'
p7
sS'lib'
p8
(dp9
sS'unicodes'
p10
(tsS'width'
p11
I424
sS'contours'
p12
(tsS'components'
p13
(tsS'anchors'
p14
(tsss."
LayerCount: 2
Fore
SplineSet
260 -70 m 1
 162 -98 124 -145 124 -193 c 0
 124 -273 230 -356 340 -356 c 1
 349 -308 l 1
 282 -288 221 -229 221 -180 c 0
 221 -147 248 -119 319 -110 c 1
 319 1 l 1
 260 1 l 1
 260 -70 l 1
EndSplineSet
EndChar

StartChar: circumflex
Encoding: 710 710 45
Width: 370
VWidth: 0
Flags: W
PickledData: "(dp1
S'com.typemytype.robofont.layerData'
p2
(dp3
S'back'
p4
(dp5
S'name'
p6
S'circumflex'
p7
sS'lib'
p8
(dp9
sS'unicodes'
p10
(tsS'width'
p11
I370
sS'contours'
p12
(tsS'components'
p13
(tsS'anchors'
p14
(tsss."
LayerCount: 2
Fore
SplineSet
28 86 m 0
 35 86 42 90 49 98 c 2
 242 326 l 1
 435 98 l 2
 442 90 449 86 456 86 c 0
 466 86 474 94 474 106 c 0
 474 110 473 115 470 121 c 2
 303 441 l 2
 292 462 267 481 242 481 c 0
 217 481 193 463 181 441 c 2
 14 121 l 2
 11 115 10 110 10 106 c 0
 10 94 18 86 28 86 c 0
EndSplineSet
EndChar

StartChar: comma
Encoding: 44 44 47
Width: 508
VWidth: 0
Flags: W
PickledData: "(dp1
S'com.typemytype.robofont.layerData'
p2
(dp3
S'back'
p4
(dp5
S'name'
p6
S'comma'
p7
sS'lib'
p8
(dp9
sS'unicodes'
p10
(tsS'width'
p11
I508
sS'contours'
p12
(tsS'components'
p13
(tsS'anchors'
p14
(tsss."
LayerCount: 2
Fore
SplineSet
134 -153 m 1
 193 -153 l 1
 302 -61 343 13 343 72 c 0
 343 114 312 160 255 160 c 0
 196 160 165 115 165 72 c 0
 165 38 184 3 220 -10 c 1
 209 -60 171 -105 134 -153 c 1
EndSplineSet
EndChar

StartChar: d
Encoding: 100 100 48
Width: 1074
VWidth: 0
Flags: W
PickledData: "(dp1
S'name'
p2
S'd'
sS'com.typemytype.robofont.layerData'
p3
(dp4
S'back'
p5
(dp6
g2
S'd'
sS'lib'
p7
(dp8
sS'unicodes'
p9
(tsS'width'
p10
I1074
sS'contours'
p11
(tsS'components'
p12
(tsS'anchors'
p13
(tsssg9
(tsg10
I1113
sg11
(tsg12
(tsg13
(ts."
LayerCount: 2
Fore
SplineSet
574 -16 m 0
 669 -16 784 4 909 43 c 1
 909 1241 l 1
 781 1220 l 1
 781 761 l 1
 781 761 677 840 498 840 c 0
 263 840 108 650 108 411 c 0
 108 154 288 -16 574 -16 c 0
572 81 m 0
 380 81 235 191 235 402 c 0
 235 573.086927275 317 742 530 742 c 0
 670 742 781 666 781 666 c 1
 781 108 l 1
 742 99 668 81 572 81 c 0
EndSplineSet
EndChar

StartChar: dieresis
Encoding: 168 168 49
Width: 508
VWidth: 0
Flags: W
PickledData: "(dp1
S'com.typemytype.robofont.layerData'
p2
(dp3
S'back'
p4
(dp5
S'name'
p6
S'dieresis'
p7
sS'lib'
p8
(dp9
sS'unicodes'
p10
(tsS'width'
p11
I508
sS'contours'
p12
(tsS'components'
p13
(tsS'anchors'
p14
(tsss."
LayerCount: 2
Fore
SplineSet
508 72 m 0
 508 114 477 160 420 160 c 0
 361 160 330 115 330 72 c 0
 330 28 361 -16 420 -16 c 0
 477 -16 508 28 508 72 c 0
178 72 m 0
 178 114 147 160 90 160 c 0
 31 160 0 115 0 72 c 0
 0 28 31 -16 90 -16 c 0
 147 -16 178 28 178 72 c 0
EndSplineSet
EndChar

StartChar: e
Encoding: 101 101 51
Width: 952
VWidth: 0
Flags: W
PickledData: "(dp1
S'com.typemytype.robofont.layerData'
p2
(dp3
S'back'
p4
(dp5
S'name'
p6
S'e'
sS'lib'
p7
(dp8
sS'unicodes'
p9
(tsS'width'
p10
F952
sS'contours'
p11
((dp12
S'points'
p13
((dp14
S'segmentType'
p15
S'curve'
p16
sS'x'
F108
sS'smooth'
p17
I01
sS'y'
F413
s(dp18
S'y'
F163
sS'x'
F108
sg17
I00
s(dp19
S'y'
F-16
sS'x'
F284
sg17
I00
s(dp20
g15
S'curve'
p21
sS'x'
F570
sg17
I01
sS'y'
F-16
s(dp22
S'y'
F-16
sS'x'
F683
sg17
I00
s(dp23
S'y'
F20
sS'x'
F764
sg17
I00
s(dp24
g15
S'curve'
p25
sS'x'
F805
sg17
I00
sS'y'
F43
s(dp26
g15
S'line'
p27
sS'x'
F805
sg17
I00
sS'y'
F146
s(dp28
S'y'
F132
sS'x'
F779
sg17
I00
s(dp29
S'y'
F81
sS'x'
F686
sg17
I00
s(dp30
g15
S'curve'
p31
sS'x'
F563
sg17
I01
sS'y'
F81
s(dp32
S'y'
F81
sS'x'
F332
sg17
I00
s(dp33
S'y'
F235
sS'x'
F228
sg17
I00
s(dp34
g15
S'curve'
p35
sS'x'
F228
sg17
I01
sS'y'
F414
s(dp36
S'y'
F583
sS'x'
F228
sg17
I00
s(dp37
S'y'
F742
sS'x'
F343
sg17
I00
s(dp38
g15
S'curve'
p39
sS'x'
F569
sg17
I01
sS'y'
F742
s(dp40
S'y'
F742
sS'x'
F712
sg17
I00
s(dp41
S'y'
F694
sS'x'
F794
sg17
I00
s(dp42
g15
S'curve'
p43
sS'x'
F805
sg17
I00
sS'y'
F688
s(dp44
g15
S'line'
p45
sS'x'
F805
sg17
I00
sS'y'
F783
s(dp46
S'y'
F795
sS'x'
F786
sg17
I00
s(dp47
S'y'
F840
sS'x'
F695
sg17
I00
s(dp48
g15
S'curve'
p49
sS'x'
F566
sg17
I01
sS'y'
F840
s(dp50
S'y'
F840
sS'x'
F298
sg17
I00
s(dp51
S'y'
F668
sS'x'
F108
sg17
I00
stp52
stp53
sS'components'
p54
(tsS'anchors'
p55
(tsss."
LayerCount: 2
Fore
SplineSet
559 -15 m 0
 688 -15 764 18 831 57 c 1
 831 159 l 1
 770 126 698 81 556 81 c 0
 384 81 242 170 227 388 c 1
 862 388 l 1
 862 409 l 2
 862 633 754 840 498 840 c 0
 282 840 108 669 108 428 c 0
 108 132 304 -15 559 -15 c 0
235 474 m 1
 243 542 295 742 513 742 c 0
 667 742 745 614 754 474 c 1
 235 474 l 1
EndSplineSet
EndChar

StartChar: eacute
Encoding: 233 233 52
Width: 1021
VWidth: 0
Flags: W
PickledData: "(dp1
S'com.typemytype.robofont.layerData'
p2
(dp3
S'back'
p4
(dp5
S'name'
p6
S'eacute'
p7
sS'lib'
p8
(dp9
sS'unicodes'
p10
(tsS'width'
p11
I1021
sS'contours'
p12
(tsS'components'
p13
(tsS'anchors'
p14
(tsss."
LayerCount: 2
Fore
SplineSet
554 1108.5 m 2
 548.666015625 1097.25488281 546.32421875 1086.76757812 546.32421875 1077.48046875 c 0
 546.32421875 1053.18652344 562.34765625 1037.09765625 582.762695312 1037.09765625 c 0
 595.411132812 1037.09765625 609.74609375 1043.2734375 623 1057.5 c 2
 882 1335.5 l 2
 916.452148438 1372.47851562 930.459960938 1409.6484375 930.459960938 1441.99121094 c 0
 930.459960938 1498.67089844 887.435546875 1540.51953125 836.038085938 1540.51953125 c 0
 793.556640625 1540.51953125 745.35546875 1511.93164062 711 1439.5 c 2
 554 1108.5 l 2
302.80859375 582.315429688 m 2
 333.735351562 691.770507812 433.61328125 761 545 761 c 0
 644.291992188 761 735.03125 699.102539062 750.551757812 573.3515625 c 2
 758.8671875 506 l 1
 281.244140625 506 l 1
 302.80859375 582.315429688 l 2
290.349609375 376.366210938 m 2
 274.704101562 449 l 1
 858 449 l 1
 858 455.702148438 l 2
 858 683.689453125 759.776367188 843 517 843 c 0
 287.860351562 843 130 662.919921875 130 452.684570312 c 0
 130 172.948242188 358.18359375 33 600 33 c 0
 686.895507812 33 772.813476562 53.833984375 847 91.6708984375 c 1
 847 182.358398438 l 1
 784.447265625 155.396484375 707.1484375 136 624 136 c 0
 485.662109375 136 329.709960938 193.635742188 290.349609375 376.366210938 c 2
EndSplineSet
EndChar

StartChar: egrave
Encoding: 232 232 53
Width: 1021
VWidth: 0
Flags: W
PickledData: "(dp1
S'com.typemytype.robofont.layerData'
p2
(dp3
S'back'
p4
(dp5
S'name'
p6
S'egrave'
p7
sS'lib'
p8
(dp9
sS'unicodes'
p10
(tsS'width'
p11
I1021
sS'contours'
p12
(tsS'components'
p13
(tsS'anchors'
p14
(tsss."
LayerCount: 2
Fore
SplineSet
634.215820312 1108.5 m 2
 477.215820312 1439.5 l 2
 443.215820312 1511.5 394.215820312 1540.5 352.215820312 1540.5 c 0
 301.215820312 1540.5 257.215820312 1498.5 257.215820312 1441.5 c 0
 257.215820312 1409.5 272.215820312 1372.5 306.215820312 1335.5 c 2
 565.215820312 1057.5 l 2
 578.215820312 1043.5 592.215820312 1037.5 605.215820312 1037.5 c 0
 625.215820312 1037.5 641.215820312 1053.5 641.215820312 1077.5 c 0
 641.215820312 1086.5 639.215820312 1097.5 634.215820312 1108.5 c 2
302.80859375 582.315429688 m 2
 333.735351562 691.770507812 433.61328125 761 545 761 c 0
 644.291992188 761 735.03125 699.102539062 750.551757812 573.3515625 c 2
 758.8671875 506 l 1
 281.244140625 506 l 1
 302.80859375 582.315429688 l 2
290.349609375 376.366210938 m 2
 274.704101562 449 l 1
 858 449 l 1
 858 455.702148438 l 2
 858 683.689453125 759.776367188 843 517 843 c 0
 287.860351562 843 130 662.919921875 130 452.684570312 c 0
 130 172.948242188 358.18359375 33 600 33 c 0
 686.895507812 33 772.813476562 53.833984375 847 91.6708984375 c 1
 847 182.358398438 l 1
 784.447265625 155.396484375 707.1484375 136 624 136 c 0
 485.662109375 136 329.709960938 193.635742188 290.349609375 376.366210938 c 2
EndSplineSet
EndChar

StartChar: eight
Encoding: 56 56 54
Width: 1176
VWidth: 0
Flags: W
PickledData: "(dp1
S'com.typemytype.robofont.layerData'
p2
(dp3
S'back'
p4
(dp5
S'name'
p6
S'eight'
p7
sS'lib'
p8
(dp9
sS'unicodes'
p10
(tsS'width'
p11
I1176
sS'contours'
p12
((dp13
S'points'
p14
((dp15
S'y'
I-33
sS'x'
I837
sS'smooth'
p16
I00
s(dp17
S'y'
I106
sS'x'
I977
sg16
I00
s(dp18
S'segmentType'
p19
S'curve'
p20
sS'x'
I977
sg16
I01
sS'y'
I304
s(dp21
S'y'
I486
sS'x'
I977
sg16
I00
s(dp22
S'y'
I613
sS'x'
I838
sg16
I00
s(dp23
g19
S'curve'
p24
sS'x'
I688
sg16
I00
sS'y'
I663
s(dp25
S'y'
I703
sS'x'
I812
sg16
I00
s(dp26
S'y'
I799
sS'x'
I951
sg16
I00
s(dp27
g19
S'curve'
p28
sS'x'
I951
sg16
I01
sS'y'
I961
s(dp29
S'y'
I1183
sS'x'
I951
sg16
I00
s(dp30
S'y'
I1275
sS'x'
I777
sg16
I00
s(dp31
g19
S'curve'
p32
sS'x'
I598
sg16
I01
sS'y'
I1275
s(dp33
S'y'
I1275
sS'x'
I493
sg16
I00
s(dp34
S'y'
I1242
sS'x'
I375
sg16
I00
s(dp35
g19
S'curve'
p36
sS'x'
I301
sg16
I00
sS'y'
I1192
s(dp37
g19
S'line'
p38
sS'x'
I341
sg16
I00
sS'y'
I1097
s(dp39
S'y'
I1142
sS'x'
I402
sg16
I00
s(dp40
S'y'
I1173
sS'x'
I503
sg16
I00
s(dp41
g19
S'curve'
p42
sS'x'
I590
sg16
I01
sS'y'
I1173
s(dp43
S'y'
I1173
sS'x'
I709
sg16
I00
s(dp44
S'y'
I1115
sS'x'
I834
sg16
I00
s(dp45
g19
S'curve'
p46
sS'x'
I834
sg16
I01
sS'y'
I962
s(dp47
S'y'
I808
sS'x'
I834
sg16
I00
s(dp48
S'y'
I739
sS'x'
I662
sg16
I00
s(dp49
g19
S'curve'
p50
sS'x'
I477
sg16
I01
sS'y'
I680
s(dp51
S'y'
I680
sS'x'
I477
sg16
I00
s(dp52
S'y'
I640
sS'x'
I477
sg16
I00
s(dp53
g19
S'curve'
p54
sS'x'
I477
sg16
I01
sS'y'
I640
s(dp55
S'y'
I565
sS'x'
I749
sg16
I00
s(dp56
S'y'
I455
sS'x'
I858
sg16
I00
s(dp57
g19
S'curve'
p58
sS'x'
I858
sg16
I01
sS'y'
I299
s(dp59
S'y'
I161
sS'x'
I858
sg16
I00
s(dp60
S'y'
I70
sS'x'
I747
sg16
I00
s(dp61
g19
S'curve'
p62
sS'x'
I599
sg16
I01
sS'y'
I70
s(dp63
S'y'
I70
sS'x'
I522
sg16
I00
s(dp64
S'y'
I94
sS'x'
I425
sg16
I00
s(dp65
g19
S'curve'
p66
sS'x'
I331
sg16
I00
sS'y'
I142
s(dp67
g19
S'line'
p68
sS'x'
I301
sg16
I00
sS'y'
I47
s(dp69
S'y'
I-3
sS'x'
I384
sg16
I00
s(dp70
S'y'
I-33
sS'x'
I503
sg16
I00
s(dp71
g19
S'curve'
p72
sS'x'
I589
sg16
I01
sS'y'
I-33
stp73
stp74
sS'components'
p75
(tsS'anchors'
p76
(tsss."
LayerCount: 2
Fore
SplineSet
602 -34 m 0
 809 -34 977 86 977 302 c 0
 977 432 909 577 690 664 c 1
 898 741 951 854 951 975 c 0
 951 1129 833 1275 596 1275 c 0
 378 1275 255 1129 255 970 c 0
 255 846 351 729 492 657 c 1
 332 569 232 422 232 281 c 0
 232 75 422 -34 602 -34 c 0
570 710 m 1
 434 764 373 865 373 973 c 0
 373 1093 469 1173 596 1173 c 0
 724 1173 834 1092 834 972 c 0
 834 864 773 791 570 710 c 1
596 70 m 0
 473 70 362 148 362 293 c 0
 362 435 444 551 591 605 c 1
 761 543 857 434 857 301 c 0
 857 148 732 70 596 70 c 0
EndSplineSet
EndChar

StartChar: eogonek
Encoding: 281 281 55
Width: 1021
VWidth: 0
Flags: W
PickledData: "(dp1
S'com.typemytype.robofont.layerData'
p2
(dp3
S'back'
p4
(dp5
S'name'
p6
S'eogonek'
p7
sS'lib'
p8
(dp9
sS'unicodes'
p10
(tsS'width'
p11
I1021
sS'contours'
p12
(tsS'components'
p13
(tsS'anchors'
p14
(tsss."
LayerCount: 2
Fore
SplineSet
690 -7 m 1
 581 -99 540 -173 540 -232 c 0
 540 -306 605 -355 680 -383 c 1
 749 -325 l 1
 684 -270 660 -221 660 -177 c 0
 660 -116 705 -63 749 -7 c 1
 690 -7 l 1
302.80859375 582.315429688 m 2
 333.735351562 691.770507812 433.61328125 761 545 761 c 0
 644.291992188 761 735.03125 699.102539062 750.551757812 573.3515625 c 2
 758.8671875 506 l 1
 281.244140625 506 l 1
 302.80859375 582.315429688 l 2
290.349609375 376.366210938 m 2
 274.704101562 449 l 1
 858 449 l 1
 858 455.702148438 l 2
 858 683.689453125 759.776367188 843 517 843 c 0
 287.860351562 843 130 662.919921875 130 452.684570312 c 0
 130 172.948242188 358.18359375 33 600 33 c 0
 686.895507812 33 772.813476562 53.833984375 847 91.6708984375 c 1
 847 182.358398438 l 1
 784.447265625 155.396484375 707.1484375 136 624 136 c 0
 485.662109375 136 329.709960938 193.635742188 290.349609375 376.366210938 c 2
EndSplineSet
EndChar

StartChar: equal
Encoding: 61 61 56
Width: 1259
VWidth: 0
Flags: W
PickledData: "(dp1
S'com.typemytype.robofont.layerData'
p2
(dp3
s."
LayerCount: 2
Fore
SplineSet
880 410 m 1
 880 503 l 1
 270 503 l 1
 270 410 l 1
 880 410 l 1
880 647 m 1
 880 740 l 1
 270 740 l 1
 270 647 l 1
 880 647 l 1
EndSplineSet
EndChar

StartChar: exclam
Encoding: 33 33 57
Width: 543
VWidth: 0
Flags: W
PickledData: "(dp1
S'com.typemytype.robofont.layerData'
p2
(dp3
S'back'
p4
(dp5
S'name'
p6
S'exclam'
p7
sS'lib'
p8
(dp9
sS'unicodes'
p10
(tsS'width'
p11
I543
sS'contours'
p12
(tsS'components'
p13
(tsS'anchors'
p14
(tsss."
LayerCount: 2
Fore
SplineSet
265 319 m 1
 311 1241 l 1
 183 1241 l 1
 229 319 l 1
 265 319 l 1
EndSplineSet
Refer: 87 46 N 1 0 0 1 0 0 2
EndChar

StartChar: f
Encoding: 102 102 58
Width: 601
VWidth: 0
Flags: W
PickledData: "(dp1
S'com.typemytype.robofont.layerData'
p2
(dp3
S'back'
p4
(dp5
S'name'
p6
S'f'
sS'lib'
p7
(dp8
sS'unicodes'
p9
(tsS'width'
p10
I601
sS'contours'
p11
(tsS'components'
p12
(tsS'anchors'
p13
(tsss."
LayerCount: 2
Fore
SplineSet
338 0 m 1
 338 723 l 1
 522 723 l 1
 522 824 l 1
 335 824 l 1
 335 891 l 2
 335 1056 407 1105 497 1105 c 0
 537 1105 573 1095 620 1082 c 1
 620 1184 l 1
 566 1200 519 1208 475 1208 c 0
 297 1208 207 1081 207 891 c 2
 207 824 l 1
 92 824 l 1
 92 723 l 1
 210 723 l 1
 210 0 l 1
 338 0 l 1
EndSplineSet
EndChar

StartChar: five
Encoding: 53 53 59
Width: 973
VWidth: 0
Flags: W
PickledData: "(dp1
S'com.typemytype.robofont.layerData'
p2
(dp3
S'back'
p4
(dp5
S'name'
p6
S'five'
p7
sS'lib'
p8
(dp9
sS'unicodes'
p10
(tsS'width'
p11
I973
sS'contours'
p12
((dp13
S'points'
p14
((dp15
S'segmentType'
p16
S'curve'
p17
sS'x'
F454
sS'smooth'
p18
I01
sS'y'
F-35
s(dp19
S'y'
F-35
sS'x'
F668
sg18
I00
s(dp20
S'y'
F101
sS'x'
F826
sg18
I00
s(dp21
g16
S'curve'
p22
sS'x'
F826
sg18
I01
sS'y'
F325
s(dp23
S'y'
F506
sS'x'
F826
sg18
I00
s(dp24
S'y'
F626
sS'x'
F716
sg18
I00
s(dp25
g16
S'curve'
p26
sS'x'
F579
sg18
I00
sS'y'
F661
s(dp27
S'y'
F703
sS'x'
F700
sg18
I00
s(dp28
S'y'
F799
sS'x'
F800
sg18
I00
s(dp29
g16
S'curve'
p30
sS'x'
F800
sg18
I01
sS'y'
F961
s(dp31
S'y'
F1165
sS'x'
F800
sg18
I00
s(dp32
S'y'
F1274
sS'x'
F646
sg18
I00
s(dp33
g16
S'curve'
p34
sS'x'
F483
sg18
I01
sS'y'
F1274
s(dp35
S'y'
F1274
sS'x'
F328
sg18
I00
s(dp36
S'y'
F1226
sS'x'
F216
sg18
I00
s(dp37
g16
S'curve'
p38
sS'x'
F165
sg18
I00
sS'y'
F1179
s(dp39
g16
S'line'
p40
sS'x'
F205
sg18
I00
sS'y'
F1084
s(dp41
S'y'
F1127
sS'x'
F264
sg18
I00
s(dp42
S'y'
F1167
sS'x'
F365
sg18
I00
s(dp43
g16
S'curve'
p44
sS'x'
F466
sg18
I01
sS'y'
F1167
s(dp45
S'y'
F1167
sS'x'
F596
sg18
I00
s(dp46
S'y'
F1079
sS'x'
F670
sg18
I00
s(dp47
g16
S'curve'
p48
sS'x'
F670
sg18
I01
sS'y'
F938
s(dp49
S'y'
F740
sS'x'
F670
sg18
I00
s(dp50
S'y'
F707
sS'x'
F496
sg18
I00
s(dp51
g16
S'curve'
p52
sS'x'
F326
sg18
I00
sS'y'
F707
s(dp53
g16
S'line'
p54
sS'x'
F326
sg18
I00
sS'y'
F601
s(dp55
S'y'
F601
sS'x'
F534
sg18
I00
s(dp56
S'y'
F558
sS'x'
F696
sg18
I00
s(dp57
g16
S'curve'
p58
sS'x'
F696
sg18
I01
sS'y'
F328
s(dp59
S'y'
F176
sS'x'
F696
sg18
I00
s(dp60
S'y'
F73
sS'x'
F600
sg18
I00
s(dp61
g16
S'curve'
p62
sS'x'
F455
sg18
I01
sS'y'
F73
s(dp63
S'y'
F73
sS'x'
F298
sg18
I00
s(dp64
S'y'
F132
sS'x'
F232
sg18
I00
s(dp65
g16
S'curve'
p66
sS'x'
F195
sg18
I00
sS'y'
F156
s(dp67
g16
S'line'
p68
sS'x'
F165
sg18
I00
sS'y'
F61
s(dp69
S'y'
F16
sS'x'
F206
sg18
I00
s(dp70
S'y'
F-35
sS'x'
F310
sg18
I00
stp71
stp72
sS'components'
p73
(tsS'anchors'
p74
(tsss."
LayerCount: 2
Fore
SplineSet
462 -34 m 0
 703 -34 879 98 879 362 c 0
 879 600 694 743 503 743 c 0
 442 743 369 736 309 695 c 1
 313 817 319 1001 324 1122 c 1
 772 1122 l 1
 783 1241 l 1
 221 1241 l 1
 191 581 l 1
 294 564 l 1
 341 623 418 640 489 640 c 0
 653 640 760 499 760 355 c 0
 760 182 645 73 465 73 c 0
 325 73 216 141 169 182 c 1
 136 81 l 1
 201 13 335 -34 462 -34 c 0
EndSplineSet
EndChar

StartChar: four
Encoding: 52 52 60
Width: 1077
VWidth: 0
Flags: W
PickledData: "(dp1
S'com.typemytype.robofont.layerData'
p2
(dp3
S'back'
p4
(dp5
S'name'
p6
S'four'
p7
sS'lib'
p8
(dp9
sS'unicodes'
p10
(tsS'width'
p11
I1077
sS'contours'
p12
(tsS'components'
p13
(tsS'anchors'
p14
(tsss."
LayerCount: 2
Fore
SplineSet
666 0 m 1
 794 0 l 1
 794 257 l 1
 1008 257 l 1
 982 363 l 1
 794 363 l 1
 794 1253 l 1
 73 257 l 1
 666 257 l 1
 666 0 l 1
279 363 m 1
 666 910 l 1
 666 363 l 1
 279 363 l 1
EndSplineSet
EndChar

StartChar: g
Encoding: 103 103 61
Width: 1058
VWidth: 0
Flags: W
PickledData: "(dp1
S'name'
p2
S'd'
sS'com.typemytype.robofont.layerData'
p3
(dp4
S'back'
p5
(dp6
g2
S'g'
sS'lib'
p7
(dp8
g2
S'd'
sS'unicodes'
p9
(tsS'width'
p10
I1113
sS'contours'
p11
(tsS'components'
p12
(tsS'anchors'
p13
(tssg9
(tsg10
I1058
sg11
(tsg12
(tsg13
(tsssg9
(tsg10
I1113
sg11
(tsg12
(tsg13
(ts."
LayerCount: 2
Fore
SplineSet
561 -393 m 0
 771 -393 909 -271 909 -15 c 2
 909 824 l 1
 781 824 l 1
 781 761 l 1
 781 761 677 840 498 840 c 0
 263 840 108 650 108 411 c 0
 108 154 268 -16 564 -16 c 0
 625 -16 720 4 781 30 c 1
 781 -42 l 2
 781 -206 702 -295 573 -295 c 0
 439 -295 364 -267 308 -242 c 1
 308 -342 l 1
 355 -362 446 -393 561 -393 c 0
561 82 m 0
 343 82 235 191 235 402 c 0
 235 573 317 742 530 742 c 0
 670 742 781 666 781 666 c 1
 781 120 l 1
 742 108 657 82 561 82 c 0
EndSplineSet
EndChar

StartChar: grave
Encoding: 96 96 62
Width: 370
VWidth: 0
Flags: W
PickledData: "(dp1
S'anchors'
p2
(tsS'unicodes'
p3
(tsS'width'
p4
I370
sS'contours'
p5
(tsS'components'
p6
(tsS'name'
p7
S'grave'
p8
s."
LayerCount: 2
Fore
SplineSet
302 121 m 2
 305 115 306 110 306 106 c 0
 306 94 298 86 288 86 c 0
 281 86 274 90 267 98 c 2
 27 381 l 2
 15 395 10 409 10 422 c 0
 10 454 42 481 75 481 c 0
 97 481 120 469 135 441 c 2
 302 121 l 2
EndSplineSet
EndChar

StartChar: guillemotleft
Encoding: 171 171 63
Width: 786
VWidth: 0
Flags: W
PickledData: "(dp1
S'com.typemytype.robofont.layerData'
p2
(dp3
S'back'
p4
(dp5
S'name'
p6
S'guillemotleft'
p7
sS'lib'
p8
(dp9
sS'unicodes'
p10
(tsS'width'
p11
I786
sS'contours'
p12
(tsS'components'
p13
(tsS'anchors'
p14
(tsss."
LayerCount: 2
Fore
SplineSet
658 197 m 0
 674 197 685 208 685 221 c 0
 685 229 678 237 669 248 c 1
 498 497 l 1
 669 747 l 1
 678 758 685 766 685 774 c 0
 685 787 674 798 658 798 c 0
 653 798 646 797 638 793 c 1
 384 577 l 1
 351 555 334 526 334 497 c 0
 334 469 350 440 384 418 c 1
 638 202 l 1
 646 198 653 197 658 197 c 0
367 197 m 0
 383 197 394 208 394 221 c 0
 394 229 387 237 378 248 c 1
 207 497 l 1
 378 747 l 1
 387 758 394 766 394 774 c 0
 394 787 383 798 367 798 c 0
 362 798 355 797 347 793 c 1
 93 577 l 1
 60 555 43 526 43 497 c 0
 43 469 59 440 93 418 c 1
 347 202 l 1
 355 198 362 197 367 197 c 0
EndSplineSet
EndChar

StartChar: h
Encoding: 104 104 65
Width: 1181
VWidth: 0
Flags: W
PickledData: "(dp1
S'com.typemytype.robofont.layerData'
p2
(dp3
S'back'
p4
(dp5
S'name'
p6
S'h'
sS'lib'
p7
(dp8
sS'unicodes'
p9
(tsS'width'
p10
I1181
sS'contours'
p11
((dp12
S'points'
p13
((dp14
S'segmentType'
p15
S'line'
p16
sS'x'
F310
sS'smooth'
p17
I00
sS'y'
F1241
s(dp18
g15
S'line'
p19
sS'x'
F182
sg17
I00
sS'y'
F1219
s(dp20
g15
S'line'
p21
sS'x'
F182
sg17
I01
sS'y'
F218
s(dp22
S'y'
F60
sS'x'
F182
sg17
I00
s(dp23
S'y'
F-16
sS'x'
F275
sg17
I00
s(dp24
g15
S'curve'
p25
sS'x'
F400
sg17
I01
sS'y'
F-16
s(dp26
S'y'
F-16
sS'x'
F479
sg17
I00
s(dp27
S'y'
F1
sS'x'
F526
sg17
I00
s(dp28
g15
S'curve'
p29
sS'x'
F559
sg17
I00
sS'y'
F14
s(dp30
g15
S'line'
p31
sS'x'
F559
sg17
I00
sS'y'
F105
s(dp32
S'y'
F98
sS'x'
F535
sg17
I00
s(dp33
S'y'
F81
sS'x'
F476
sg17
I00
s(dp34
g15
S'curve'
p35
sS'x'
F419
sg17
I01
sS'y'
F81
s(dp36
S'y'
F81
sS'x'
F340
sg17
I00
s(dp37
S'y'
F124
sS'x'
F310
sg17
I00
s(dp38
g15
S'curve'
p39
sS'x'
F310
sg17
I01
sS'y'
F246
stp40
stp41
sS'components'
p42
(tsS'anchors'
p43
(tsss."
LayerCount: 2
Fore
SplineSet
310 0 m 1
 310 595 l 1
 310 595 440 742 629 742 c 0
 775 742 846 690 846 559 c 2
 846 0 l 1
 974 0 l 1
 974 580 l 2
 974 735 831 840 673 840 c 0
 428 840 310 694 310 694 c 1
 310 1241 l 1
 182 1219 l 1
 182 0 l 1
 310 0 l 1
EndSplineSet
EndChar

StartChar: hyphen
Encoding: 45 45 67
Width: 1009
VWidth: 0
Flags: W
PickledData: "(dp1
S'com.typemytype.robofont.layerData'
p2
(dp3
S'back'
p4
(dp5
S'name'
p6
S'hyphen'
p7
sS'lib'
p8
(dp9
sS'unicodes'
p10
(tsS'width'
p11
I1009
sS'contours'
p12
(tsS'components'
p13
(tsS'anchors'
p14
(tsss."
LayerCount: 2
Fore
SplineSet
227 559 m 1
 767 559 l 1
 767 652 l 1
 227 652 l 1
 227 559 l 1
EndSplineSet
EndChar

StartChar: i
Encoding: 105 105 68
Width: 508
VWidth: 0
Flags: W
PickledData: "(dp1
S'com.typemytype.robofont.layerData'
p2
(dp3
S'back'
p4
(dp5
S'name'
p6
S'i'
sS'lib'
p7
(dp8
sS'unicodes'
p9
(tsS'width'
p10
I508
sS'contours'
p11
(tsS'components'
p12
(tsS'anchors'
p13
(tsss."
LayerCount: 2
Fore
SplineSet
343 1152 m 0
 343 1194 312 1240 255 1240 c 0
 196 1240 165 1195 165 1152 c 0
 165 1108 196 1064 255 1064 c 0
 312 1064 343 1108 343 1152 c 0
321 0 m 1
 321 824 l 1
 193 824 l 1
 193 0 l 1
 321 0 l 1
EndSplineSet
EndChar

StartChar: j
Encoding: 106 106 69
Width: 529
VWidth: 0
Flags: W
PickledData: "(dp1
S'com.typemytype.robofont.layerData'
p2
(dp3
S'back'
p4
(dp5
S'name'
p6
S'j'
sS'lib'
p7
(dp8
sS'unicodes'
p9
(tsS'width'
p10
I529
sS'contours'
p11
(tsS'components'
p12
(tsS'anchors'
p13
(tsss."
LayerCount: 2
Fore
SplineSet
364 1152 m 0
 364 1194 333 1240 276 1240 c 0
 217 1240 186 1195 186 1152 c 0
 186 1108 217 1064 276 1064 c 0
 333 1064 364 1108 364 1152 c 0
348 -79 m 2
 348 824 l 1
 220 824 l 1
 220 -76 l 2
 220 -178 145 -213 49 -221 c 0
 41 -222 33 -222 24 -223 c 1
 46 -326 l 1
 312 -312 348 -182 348 -79 c 2
EndSplineSet
EndChar

StartChar: k
Encoding: 107 107 70
Width: 888
VWidth: 0
Flags: W
PickledData: "(dp1
S'com.typemytype.robofont.layerData'
p2
(dp3
S'back'
p4
(dp5
S'name'
p6
S'k'
sS'lib'
p7
(dp8
sS'unicodes'
p9
(tsS'width'
p10
I888
sS'contours'
p11
(tsS'components'
p12
(tsS'anchors'
p13
(tsss."
LayerCount: 2
Fore
SplineSet
293 408 m 1
 728 0 l 1
 891 0 l 1
 422 441 l 1
 831 823 l 1
 673 823 l 1
 293 464 l 1
 293 1241 l 1
 165 1221 l 1
 165 -1 l 1
 293 -1 l 1
 293 408 l 1
EndSplineSet
EndChar

StartChar: l
Encoding: 108 108 71
Width: 597
VWidth: 0
Flags: W
PickledData: "(dp1
S'com.typemytype.robofont.layerData'
p2
(dp3
S'back'
p4
(dp5
S'name'
p6
S'l'
sS'lib'
p7
(dp8
sS'unicodes'
p9
(tsS'width'
p10
I597
sS'contours'
p11
(tsS'components'
p12
(tsS'anchors'
p13
(tsss."
LayerCount: 2
Fore
SplineSet
293 1241 m 1
 165 1219 l 1
 165 218 l 2
 165 60 258 -16 383 -16 c 0
 462 -16 509 1 542 14 c 1
 542 105 l 1
 518 98 459 81 402 81 c 0
 323 81 293 124 293 246 c 2
 293 1241 l 1
EndSplineSet
EndChar

StartChar: m
Encoding: 109 109 72
Width: 1681
VWidth: 0
Flags: W
PickledData: "(dp1
S'com.typemytype.robofont.layerData'
p2
(dp3
S'back'
p4
(dp5
S'name'
p6
S'm'
sS'lib'
p7
(dp8
sS'unicodes'
p9
(tsS'width'
p10
I1681
sS'contours'
p11
((dp12
S'points'
p13
((dp14
S'segmentType'
p15
S'line'
p16
sS'x'
F293
sS'smooth'
p17
I00
sS'y'
F595
s(dp18
S'y'
F595
sS'x'
F293
sg17
I00
s(dp19
S'y'
F742
sS'x'
F397
sg17
I00
s(dp20
g15
S'curve'
p21
sS'x'
F586
sg17
I01
sS'y'
F742
s(dp22
S'y'
F742
sS'x'
F732
sg17
I00
s(dp23
S'y'
F690
sS'x'
F787
sg17
I00
s(dp24
g15
S'curve'
p25
sS'x'
F787
sg17
I01
sS'y'
F559
s(dp26
g15
S'line'
p27
sS'x'
F787
sg17
I00
sS'y'
F0
s(dp28
g15
S'line'
p29
sS'x'
F915
sg17
I00
sS'y'
F0
s(dp30
g15
S'line'
p31
sS'x'
F915
sg17
I00
sS'y'
F595
s(dp32
S'y'
F595
sS'x'
F915
sg17
I00
s(dp33
S'y'
F742
sS'x'
F1017
sg17
I00
s(dp34
g15
S'curve'
p35
sS'x'
F1206
sg17
I01
sS'y'
F742
s(dp36
S'y'
F742
sS'x'
F1352
sg17
I00
s(dp37
S'y'
F690
sS'x'
F1409
sg17
I00
s(dp38
g15
S'curve'
p39
sS'x'
F1409
sg17
I01
sS'y'
F559
s(dp40
g15
S'line'
p41
sS'x'
F1409
sg17
I00
sS'y'
F0
s(dp42
g15
S'line'
p43
sS'x'
F1537
sg17
I00
sS'y'
F0
s(dp44
g15
S'line'
p45
sS'x'
F1537
sg17
I01
sS'y'
F580
s(dp46
S'y'
F735
sS'x'
F1537
sg17
I00
s(dp47
S'y'
F840
sS'x'
F1424
sg17
I00
s(dp48
g15
S'curve'
p49
sS'x'
F1241
sg17
I01
sS'y'
F840
s(dp50
S'y'
F840
sS'x'
F996
sg17
I00
s(dp51
S'y'
F694
sS'x'
F901
sg17
I00
s(dp52
g15
S'curve'
p53
sS'x'
F901
sg17
I00
sS'y'
F694
s(dp54
g15
S'line'
p55
sS'x'
F893
sg17
I00
sS'y'
F685
s(dp56
S'y'
F780
sS'x'
F851
sg17
I00
s(dp57
S'y'
F840
sS'x'
F749
sg17
I00
s(dp58
g15
S'curve'
p59
sS'x'
F630
sg17
I01
sS'y'
F840
s(dp60
S'y'
F840
sS'x'
F385
sg17
I00
s(dp61
S'y'
F694
sS'x'
F290
sg17
I00
s(dp62
g15
S'curve'
p63
sS'x'
F290
sg17
I00
sS'y'
F694
s(dp64
g15
S'line'
p65
sS'x'
F290
sg17
I00
sS'y'
F824
s(dp66
g15
S'line'
p67
sS'x'
F165
sg17
I00
sS'y'
F824
s(dp68
g15
S'line'
p69
sS'x'
F165
sg17
I00
sS'y'
F0
s(dp70
g15
S'line'
p71
sS'x'
F293
sg17
I00
sS'y'
F0
stp72
stp73
sS'components'
p74
(tsS'anchors'
p75
(tsss."
LayerCount: 2
Fore
SplineSet
293 595 m 1
 293 595 397 742 586 742 c 0
 732 742 787 690 787 559 c 2
 787 0 l 1
 915 0 l 1
 915 595 l 1
 915 595 1017 742 1206 742 c 0
 1352 742 1409 690 1409 559 c 2
 1409 0 l 1
 1537 0 l 1
 1537 580 l 2
 1537 735 1424 840 1241 840 c 0
 996 840 893 685 893 685 c 1
 851 780 749 840 630 840 c 0
 385 840 290 694 290 694 c 1
 290 824 l 1
 165 824 l 1
 165 0 l 1
 293 0 l 1
 293 595 l 1
EndSplineSet
EndChar

StartChar: n
Encoding: 110 110 73
Width: 1101
VWidth: 0
Flags: W
PickledData: "(dp1
S'com.typemytype.robofont.layerData'
p2
(dp3
S'back'
p4
(dp5
S'name'
p6
S'n'
sS'lib'
p7
(dp8
sS'unicodes'
p9
(tsS'width'
p10
I1101
sS'contours'
p11
(tsS'components'
p12
(tsS'anchors'
p13
(tsss."
LayerCount: 2
Fore
SplineSet
293 0 m 1
 293 595 l 1
 293 595 419 742 608 742 c 0
 754 742 829 690 829 559 c 2
 829 0 l 1
 957 0 l 1
 957 580 l 2
 957 735 810 840 652 840 c 0
 407 840 290 694 290 694 c 1
 290 824 l 1
 165 824 l 1
 165 0 l 1
 293 0 l 1
EndSplineSet
EndChar

StartChar: nine
Encoding: 57 57 74
Width: 1111
VWidth: 0
Flags: W
PickledData: "(dp1
S'com.typemytype.robofont.layerData'
p2
(dp3
S'back'
p4
(dp5
S'name'
p6
S'nine'
p7
sS'lib'
p8
(dp9
sS'unicodes'
p10
(tsS'width'
p11
I1111
sS'contours'
p12
((dp13
S'points'
p14
((dp15
S'segmentType'
p16
S'curve'
p17
sS'x'
F588
sS'smooth'
p18
I01
sS'y'
F-34
s(dp19
S'y'
F-34
sS'x'
F906
sg18
I00
s(dp20
S'y'
F179
sS'x'
F1106
sg18
I00
s(dp21
g16
S'curve'
p22
sS'x'
F1106
sg18
I01
sS'y'
F619
s(dp23
S'y'
F1081
sS'x'
F1106
sg18
I00
s(dp24
S'y'
F1274
sS'x'
F912
sg18
I00
s(dp25
g16
S'curve'
p26
sS'x'
F588
sg18
I01
sS'y'
F1274
s(dp27
S'y'
F1274
sS'x'
F264
sg18
I00
s(dp28
S'y'
F1081
sS'x'
F69
sg18
I00
s(dp29
g16
S'curve'
p30
sS'x'
F69
sg18
I01
sS'y'
F619
s(dp31
S'y'
F179
sS'x'
F69
sg18
I00
s(dp32
S'y'
F-34
sS'x'
F270
sg18
I00
stp33
s(dp34
g14
((dp35
g16
S'curve'
p36
sS'x'
F588
sg18
I01
sS'y'
F73
s(dp37
S'y'
F73
sS'x'
F345
sg18
I00
s(dp38
S'y'
F222
sS'x'
F199
sg18
I00
s(dp39
g16
S'curve'
p40
sS'x'
F199
sg18
I01
sS'y'
F619
s(dp41
S'y'
F1011
sS'x'
F199
sg18
I00
s(dp42
S'y'
F1167
sS'x'
F345
sg18
I00
s(dp43
g16
S'curve'
p44
sS'x'
F588
sg18
I01
sS'y'
F1167
s(dp45
S'y'
F1167
sS'x'
F831
sg18
I00
s(dp46
S'y'
F1011
sS'x'
F976
sg18
I00
s(dp47
g16
S'curve'
p48
sS'x'
F976
sg18
I01
sS'y'
F619
s(dp49
S'y'
F222
sS'x'
F976
sg18
I00
s(dp50
S'y'
F73
sS'x'
F831
sg18
I00
stp51
stp52
sS'components'
p53
(tsS'anchors'
p54
(tsss."
LayerCount: 2
Fore
SplineSet
324 0 m 1
 473 0 l 1
 473 0 719 318 792 427 c 0
 908 599 954 708 954 872 c 0
 954 1097 811 1274 570 1274 c 0
 342 1274 174 1104 174 882 c 0
 174 653 360 510 549 510 c 0
 609 510 693 528 741 563 c 1
 324 0 l 1
570 610 m 0
 407 610 296 718 296 883 c 0
 296 1039 410 1167 577 1167 c 0
 744 1167 832 1043 832 889 c 0
 832 736 751 610 570 610 c 0
EndSplineSet
EndChar

StartChar: o
Encoding: 111 111 76
Width: 1106
VWidth: 0
Flags: W
PickledData: "(dp1
S'name'
p2
S'o'
sS'com.typemytype.robofont.layerData'
p3
(dp4
S'back'
p5
(dp6
g2
S'o'
sS'lib'
p7
(dp8
sS'unicodes'
p9
(tsS'width'
p10
I1106
sS'contours'
p11
(tsS'components'
p12
(tsS'anchors'
p13
(tsssg9
(tsS'com.typemytype.robofont.guides'
p14
(tsg10
I1146
sg11
(tsg12
(tsg13
(ts."
LayerCount: 2
Fore
SplineSet
998 408 m 0
 998 139 785 -16 552 -16 c 0
 320 -16 108 138 108 408 c 0
 108 682 321 840 554 840 c 0
 771 840 998 683 998 408 c 0
553 81 m 0
 769 81 879 244 879 409 c 0
 879 575 765 742 553 742 c 0
 341 742 227 576 227 410 c 0
 227 230 337 81 553 81 c 0
EndSplineSet
EndChar

StartChar: oacute
Encoding: 243 243 77
Width: 1146
VWidth: 0
Flags: W
PickledData: "(dp1
S'com.typemytype.robofont.layerData'
p2
(dp3
S'back'
p4
(dp5
S'name'
p6
S'oacute'
p7
sS'lib'
p8
(dp9
sS'unicodes'
p10
(tsS'width'
p11
I1146
sS'contours'
p12
(tsS'components'
p13
(tsS'anchors'
p14
(tsss."
LayerCount: 2
Fore
SplineSet
600 1108.5 m 2
 594.666015625 1097.25488281 592.32421875 1086.76757812 592.32421875 1077.48046875 c 0
 592.32421875 1053.18652344 608.34765625 1037.09765625 628.762695312 1037.09765625 c 0
 641.411132812 1037.09765625 655.74609375 1043.2734375 669 1057.5 c 2
 928 1335.5 l 2
 962.452148438 1372.47851562 976.459960938 1409.6484375 976.459960938 1441.99121094 c 0
 976.459960938 1498.67089844 933.435546875 1540.51953125 882.038085938 1540.51953125 c 0
 839.556640625 1540.51953125 791.35546875 1511.93164062 757 1439.5 c 2
 600 1108.5 l 2
564 843 m 0
 316.4296875 843 130 682.111328125 130 440.958007812 c 0
 130 197.484375 316.831054688 35 564 35 c 0
 811.16796875 35 998 197.479492188 998 440.958007812 c 0
 998 682.107421875 811.5703125 843 564 843 c 0
564 141 m 0
 375.802734375 141 278 293.723632812 278 439 c 0
 278 581.864257812 373.416015625 737 564 737 c 0
 754.588867188 737 850 581.865234375 850 439 c 0
 850 293.723632812 752.193359375 141 564 141 c 0
EndSplineSet
EndChar

StartChar: ogonek
Encoding: 731 731 80
Width: 424
VWidth: 0
Flags: W
PickledData: "(dp1
S'com.typemytype.robofont.layerData'
p2
(dp3
S'back'
p4
(dp5
S'name'
p6
S'ogonek'
p7
sS'lib'
p8
(dp9
sS'unicodes'
p10
(tsS'width'
p11
I424
sS'contours'
p12
(tsS'components'
p13
(tsS'anchors'
p14
(tsss."
LayerCount: 2
Fore
SplineSet
260 0 m 1
 151 -92 110 -166 110 -225 c 0
 110 -299 175 -348 250 -376 c 1
 319 -318 l 1
 254 -263 230 -214 230 -170 c 0
 230 -109 275 -56 319 0 c 1
 260 0 l 1
EndSplineSet
EndChar

StartChar: ograve
Encoding: 242 242 81
Width: 1146
VWidth: 0
Flags: W
PickledData: "(dp1
S'com.typemytype.robofont.layerData'
p2
(dp3
S'back'
p4
(dp5
S'name'
p6
S'ograve'
p7
sS'lib'
p8
(dp9
sS'unicodes'
p10
(tsS'width'
p11
I1146
sS'contours'
p12
(tsS'components'
p13
(tsS'anchors'
p14
(tsss."
LayerCount: 2
Fore
SplineSet
680.215820312 1108.5 m 2
 523.215820312 1439.5 l 2
 489.215820312 1511.5 440.215820312 1540.5 398.215820312 1540.5 c 0
 347.215820312 1540.5 303.215820312 1498.5 303.215820312 1441.5 c 0
 303.215820312 1409.5 318.215820312 1372.5 352.215820312 1335.5 c 2
 611.215820312 1057.5 l 2
 624.215820312 1043.5 638.215820312 1037.5 651.215820312 1037.5 c 0
 671.215820312 1037.5 687.215820312 1053.5 687.215820312 1077.5 c 0
 687.215820312 1086.5 685.215820312 1097.5 680.215820312 1108.5 c 2
564 843 m 0
 316.4296875 843 130 682.111328125 130 440.958007812 c 0
 130 197.484375 316.831054688 35 564 35 c 0
 811.16796875 35 998 197.479492188 998 440.958007812 c 0
 998 682.107421875 811.5703125 843 564 843 c 0
564 141 m 0
 375.802734375 141 278 293.723632812 278 439 c 0
 278 581.864257812 373.416015625 737 564 737 c 0
 754.588867188 737 850 581.865234375 850 439 c 0
 850 293.723632812 752.193359375 141 564 141 c 0
EndSplineSet
EndChar

StartChar: one
Encoding: 49 49 82
Width: 591
VWidth: 0
Flags: W
PickledData: "(dp1
S'com.typemytype.robofont.layerData'
p2
(dp3
S'back'
p4
(dp5
S'name'
p6
S'one'
p7
sS'lib'
p8
(dp9
sS'unicodes'
p10
(tsS'width'
p11
I591
sS'contours'
p12
(tsS'components'
p13
(tsS'anchors'
p14
(tsss."
LayerCount: 2
Fore
SplineSet
302 0 m 1
 430 0 l 1
 430 1258 l 1
 430 1258 257 1128 53 1046 c 1
 53 943 l 1
 126 965 221 1006 302 1057 c 1
 302 0 l 1
EndSplineSet
EndChar

StartChar: oslash
Encoding: 248 248 83
Width: 1146
VWidth: 0
Flags: W
PickledData: "(dp1
S'com.typemytype.robofont.layerData'
p2
(dp3
s."
LayerCount: 2
Fore
SplineSet
865 901 m 1
 915 866 l 1
 265 -74 l 1
 215 -39 l 1
 865 901 l 1
EndSplineSet
Refer: 76 111 N 1 0 0 1 0 0 2
EndChar

StartChar: p
Encoding: 112 112 84
Width: 1074
VWidth: 0
Flags: W
PickledData: "(dp1
S'name'
p2
S'd'
sS'com.typemytype.robofont.layerData'
p3
(dp4
S'back'
p5
(dp6
g2
S'p'
sS'lib'
p7
(dp8
g2
S'd'
sS'unicodes'
p9
(tsS'width'
p10
I1113
sS'contours'
p11
(tsS'components'
p12
(tsS'anchors'
p13
(tssg9
(tsg10
I1074
sg11
((dp14
S'points'
p15
((dp16
S'segmentType'
p17
S'line'
p18
sS'x'
F165
sS'smooth'
p19
I00
sS'y'
F824
s(dp20
g17
S'line'
p21
sS'x'
F165
sg19
I00
sS'y'
F595
s(dp22
g17
S'line'
p23
sS'x'
F293
sg19
I00
sS'y'
F595
s(dp24
g17
S'line'
p25
sS'x'
F293
sg19
I00
sS'y'
F824
stp26
s(dp27
g15
((dp28
g17
S'curve'
p29
sS'x'
F520
sg19
I01
sS'y'
F840
s(dp30
S'y'
F840
sS'x'
F389
sg19
I00
s(dp31
S'y'
F723
sS'x'
F250
sg19
I00
s(dp32
g17
S'curve'
p33
sS'x'
F165
sg19
I00
sS'y'
F611
s(dp34
g17
S'line'
p35
sS'x'
F165
sg19
I00
sS'y'
F-417
s(dp36
g17
S'line'
p37
sS'x'
F293
sg19
I00
sS'y'
F-396
s(dp38
g17
S'line'
p39
sS'x'
F293
sg19
I00
sS'y'
F33
s(dp40
S'y'
F33
sS'x'
F293
sg19
I00
s(dp41
S'y'
F-16
sS'x'
F397
sg19
I00
s(dp42
g17
S'curve'
p43
sS'x'
F576
sg19
I01
sS'y'
F-16
s(dp44
S'y'
F-16
sS'x'
F811
sg19
I00
s(dp45
S'y'
F174
sS'x'
F966
sg19
I00
s(dp46
g17
S'curve'
p47
sS'x'
F966
sg19
I01
sS'y'
F413
s(dp48
S'y'
F670
sS'x'
F966
sg19
I00
s(dp49
S'y'
F840
sS'x'
F806
sg19
I00
stp50
s(dp51
g15
((dp52
g17
S'curve'
p53
sS'x'
F522
sg19
I01
sS'y'
F743
s(dp54
S'y'
F743
sS'x'
F714
sg19
I00
s(dp55
S'y'
F633
sS'x'
F839
sg19
I00
s(dp56
g17
S'curve'
p57
sS'x'
F839
sg19
I01
sS'y'
F422
s(dp58
S'y'
F251
sS'x'
F839
sg19
I00
s(dp59
S'y'
F82
sS'x'
F757
sg19
I00
s(dp60
g17
S'curve'
p61
sS'x'
F544
sg19
I01
sS'y'
F82
s(dp62
S'y'
F82
sS'x'
F404
sg19
I00
s(dp63
S'y'
F128
sS'x'
F293
sg19
I00
s(dp64
g17
S'curve'
p65
sS'x'
F293
sg19
I00
sS'y'
F128
s(dp66
g17
S'line'
p67
sS'x'
F293
sg19
I00
sS'y'
F646
s(dp68
S'y'
F658
sS'x'
F305
sg19
I00
s(dp69
S'y'
F743
sS'x'
F394
sg19
I00
stp70
stp71
sg12
(tsg13
(tsssg9
(tsg10
I1113
sg11
(tsg12
(tsg13
(ts."
LayerCount: 2
Fore
SplineSet
165 -417 m 1
 293 -396 l 1
 293 38 l 1
 293 38 388 -16 567 -16 c 0
 820 -16 966 171 966 410 c 0
 966 654 805 839 572 839 c 0
 459 839 363 806 293 745 c 1
 293 824 l 1
 165 824 l 1
 165 -417 l 1
544 81 m 0
 404 81 293 128 293 128 c 1
 293 649 l 1
 305 661 411 743 539 743 c 0
 731 743 839 623 839 412 c 0
 839 241 757 81 544 81 c 0
EndSplineSet
EndChar

StartChar: parenleft
Encoding: 40 40 85
Width: 586
VWidth: 0
Flags: W
PickledData: "(dp1
S'anchors'
p2
(tsS'unicodes'
p3
(tsS'width'
p4
I586
sS'contours'
p5
(tsS'components'
p6
(tsS'name'
p7
S'parenleft'
p8
s."
LayerCount: 2
Fore
SplineSet
117 653 m 0
 117 910 164 1142 258 1341 c 1
 386 1341 l 1
 293 1133 252 886 252 653 c 0
 252 420 293 173 386 -35 c 1
 258 -35 l 1
 164 164 117 396 117 653 c 0
EndSplineSet
EndChar

StartChar: parenright
Encoding: 41 41 86
Width: 586
VWidth: 0
Flags: W
PickledData: "(dp1
S'name'
p2
S'parenleft'
p3
sS'com.typemytype.robofont.layerData'
p4
(dp5
sS'unicodes'
p6
(tsS'width'
p7
I586
sS'contours'
p8
(tsS'components'
p9
(tsS'anchors'
p10
(ts."
LayerCount: 2
Fore
SplineSet
387 653 m 0
 387 396 340 164 246 -35 c 1
 118 -35 l 1
 211 173 252 420 252 653 c 0
 252 886 211 1133 118 1341 c 1
 246 1341 l 1
 340 1142 387 910 387 653 c 0
EndSplineSet
EndChar

StartChar: period
Encoding: 46 46 87
Width: 508
VWidth: 0
Flags: W
PickledData: "(dp1
S'com.typemytype.robofont.layerData'
p2
(dp3
S'back'
p4
(dp5
S'name'
p6
S'period'
p7
sS'lib'
p8
(dp9
sS'unicodes'
p10
(tsS'width'
p11
I508
sS'contours'
p12
(tsS'components'
p13
(tsS'anchors'
p14
(tsss."
LayerCount: 2
Fore
SplineSet
343 72 m 0
 343 114 312 160 255 160 c 0
 196 160 165 115 165 72 c 0
 165 28 196 -16 255 -16 c 0
 312 -16 343 28 343 72 c 0
EndSplineSet
EndChar

StartChar: plus
Encoding: 43 43 88
Width: 1009
VWidth: 0
Flags: W
PickledData: "(dp1
S'com.typemytype.robofont.layerData'
p2
(dp3
s."
LayerCount: 2
Fore
SplineSet
543 559 m 1
 767 559 l 1
 767 652 l 1
 543 652 l 1
 543 876 l 1
 450 876 l 1
 450 652 l 1
 227 652 l 1
 227 559 l 1
 450 559 l 1
 450 336 l 1
 543 336 l 1
 543 559 l 1
EndSplineSet
EndChar

StartChar: q
Encoding: 113 113 89
Width: 1074
VWidth: 0
Flags: W
PickledData: "(dp1
S'name'
p2
S'd'
sS'com.typemytype.robofont.layerData'
p3
(dp4
S'back'
p5
(dp6
g2
S'q'
sS'lib'
p7
(dp8
g2
S'd'
sS'unicodes'
p9
(tsS'width'
p10
I1113
sS'contours'
p11
(tsS'components'
p12
(tsS'anchors'
p13
(tssg9
(tsg10
I1074
sg11
((dp14
S'points'
p15
((dp16
S'segmentType'
p17
S'curve'
p18
sS'x'
F572
sS'smooth'
p19
I01
sS'y'
F81
s(dp20
S'y'
F81
sS'x'
F380
sg19
I00
s(dp21
S'y'
F191
sS'x'
F235
sg19
I00
s(dp22
g17
S'curve'
p23
sS'x'
F235
sg19
I01
sS'y'
F402
s(dp24
S'y'
F573
sS'x'
F235
sg19
I00
s(dp25
S'y'
F742
sS'x'
F317
sg19
I00
s(dp26
g17
S'curve'
p27
sS'x'
F530
sg19
I01
sS'y'
F742
s(dp28
S'y'
F742
sS'x'
F670
sg19
I00
s(dp29
S'y'
F666
sS'x'
F781
sg19
I00
s(dp30
g17
S'curve'
p31
sS'x'
F781
sg19
I00
sS'y'
F666
s(dp32
g17
S'line'
p33
sS'x'
F781
sg19
I00
sS'y'
F108
s(dp34
S'y'
F99
sS'x'
F742
sg19
I00
s(dp35
S'y'
F81
sS'x'
F668
sg19
I00
stp36
s(dp37
g15
((dp38
g17
S'curve'
p39
sS'x'
F574
sg19
I01
sS'y'
F-16
s(dp40
S'y'
F-16
sS'x'
F669
sg19
I00
s(dp41
S'y'
F4
sS'x'
F784
sg19
I00
s(dp42
g17
S'curve'
p43
sS'x'
F909
sg19
I00
sS'y'
F43
s(dp44
g17
S'line'
p45
sS'x'
F909
sg19
I00
sS'y'
F1241
s(dp46
g17
S'line'
p47
sS'x'
F781
sg19
I00
sS'y'
F1220
s(dp48
g17
S'line'
p49
sS'x'
F781
sg19
I00
sS'y'
F761
s(dp50
S'y'
F761
sS'x'
F781
sg19
I00
s(dp51
S'y'
F840
sS'x'
F677
sg19
I00
s(dp52
g17
S'curve'
p53
sS'x'
F498
sg19
I01
sS'y'
F840
s(dp54
S'y'
F840
sS'x'
F263
sg19
I00
s(dp55
S'y'
F650
sS'x'
F108
sg19
I00
s(dp56
g17
S'curve'
p57
sS'x'
F108
sg19
I01
sS'y'
F411
s(dp58
S'y'
F154
sS'x'
F108
sg19
I00
s(dp59
S'y'
F-16
sS'x'
F288
sg19
I00
stp60
stp61
sg12
(tsg13
(tsssg9
(tsg10
I1113
sg11
(tsg12
(tsg13
(ts."
LayerCount: 2
Fore
SplineSet
781 -413 m 1
 909 -413 l 1
 909 824 l 1
 781 824 l 1
 781 761 l 1
 694 824 593 840 514 840 c 0
 266 840 108 662 108 423 c 0
 108 156 281 -16 585 -16 c 0
 703 -16 781 11 781 11 c 1
 781 -413 l 1
587 82 m 0
 356 82 235 197 235 427 c 0
 235 631 378 743 527 743 c 0
 648 743 746 692 781 665 c 1
 781 109 l 1
 781 109 700 82 587 82 c 0
EndSplineSet
EndChar

StartChar: question
Encoding: 63 63 90
Width: 1094
VWidth: 0
Flags: W
PickledData: "(dp1
S'com.typemytype.robofont.layerData'
p2
(dp3
S'back'
p4
(dp5
S'name'
p6
S'question'
p7
sS'lib'
p8
(dp9
sS'unicodes'
p10
(tsS'width'
p11
I1094
sS'contours'
p12
(tsS'components'
p13
(tsS'anchors'
p14
(tsss."
LayerCount: 2
Fore
SplineSet
423 348 m 1
 535 348 l 1
 808.26984127 629.396825397 966 755 966 947 c 0
 966 1162 803 1274 612 1274 c 0
 474 1274 336 1214 274 1160 c 1
 327 1068 l 1
 402 1124 498 1167 604 1167 c 0
 722 1167 837 1101 837 954 c 0
 837 809 757 719 423 348 c 1
EndSplineSet
Refer: 87 46 N 1 0 0 1 200 0 2
EndChar

StartChar: questiondown
Encoding: 191 191 91
Width: 1094
VWidth: 0
Flags: W
PickledData: "(dp1
S'com.typemytype.robofont.layerData'
p2
(dp3
s."
LayerCount: 2
Fore
SplineSet
550 -446 m 0
 688 -446 826 -386 888 -332 c 1
 835 -240 l 1
 760 -296 664 -339 558 -339 c 0
 440 -339 325 -273 325 -126 c 0
 325 19 405 109 739 480 c 1
 627 480 l 1
 354 199 196 73 196 -119 c 0
 196 -334 359 -446 550 -446 c 0
EndSplineSet
Refer: 87 46 N -1 1.11022e-16 -1.11022e-16 -1 962 828 2
EndChar

StartChar: quoteright
Encoding: 8217 8217 93
Width: 508
VWidth: 0
Flags: W
PickledData: "(dp1
S'com.typemytype.robofont.layerData'
p2
(dp3
s."
LayerCount: 2
Fore
SplineSet
193 928 m 1
 302 1020 343 1094 343 1153 c 0
 343 1195 312 1241 255 1241 c 0
 196 1241 165 1196 165 1153 c 0
 165 1119 184 1084 220 1071 c 1
 209 1021 171 976 134 928 c 1
 193 928 l 1
EndSplineSet
EndChar

StartChar: r
Encoding: 114 114 94
Width: 713
VWidth: 0
Flags: W
PickledData: "(dp1
S'com.typemytype.robofont.layerData'
p2
(dp3
S'back'
p4
(dp5
S'name'
p6
S'r'
sS'lib'
p7
(dp8
sS'unicodes'
p9
(tsS'width'
p10
I713
sS'contours'
p11
((dp12
S'points'
p13
((dp14
S'segmentType'
p15
S'line'
p16
sS'x'
F717
sS'smooth'
p17
I00
sS'y'
F744
s(dp18
S'y'
F804
sS'x'
F658
sg17
I00
s(dp19
S'y'
F829
sS'x'
F609
sg17
I00
s(dp20
g15
S'curve'
p21
sS'x'
F561
sg17
I01
sS'y'
F829
s(dp22
S'y'
F829
sS'x'
F520
sg17
I00
s(dp23
S'y'
F783
sS'x'
F445
sg17
I00
s(dp24
g15
S'curve'
p25
sS'x'
F404
sg17
I01
sS'y'
F716
s(dp26
g15
S'line'
p27
sS'x'
F293
sg17
I00
sS'y'
F533
s(dp28
g15
S'line'
p29
sS'x'
F293
sg17
I00
sS'y'
F824
s(dp30
g15
S'line'
p31
sS'x'
F165
sg17
I00
sS'y'
F824
s(dp32
g15
S'line'
p33
sS'x'
F165
sg17
I00
sS'y'
F0
s(dp34
g15
S'line'
p35
sS'x'
F293
sg17
I00
sS'y'
F0
s(dp36
g15
S'line'
p37
sS'x'
F293
sg17
I01
sS'y'
F373
s(dp38
S'y'
F558
sS'x'
F293
sg17
I00
s(dp39
S'y'
F683
sS'x'
F385
sg17
I00
s(dp40
g15
S'curve'
p41
sS'x'
F514
sg17
I01
sS'y'
F683
s(dp42
S'y'
F683
sS'x'
F566
sg17
I00
s(dp43
S'y'
F661
sS'x'
F612
sg17
I00
s(dp44
g15
S'curve'
p45
sS'x'
F652
sg17
I00
sS'y'
F628
stp46
stp47
sS'components'
p48
(tsS'anchors'
p49
(tsss."
LayerCount: 2
Fore
SplineSet
717 744 m 1
 658 804 609 829 561 829 c 0
 406 829 293 573 293 573 c 1
 293 824 l 1
 165 824 l 1
 165 0 l 1
 293 0 l 1
 293 413 l 2
 293 540 414 703 543 703 c 0
 595 703 641 681 681 648 c 1
 717 744 l 1
EndSplineSet
EndChar

StartChar: ring
Encoding: 730 730 95
Width: 1106
VWidth: 0
Flags: W
PickledData: "(dp1
S'name'
p2
S'o'
sS'com.typemytype.robofont.layerData'
p3
(dp4
sS'unicodes'
p5
(tsS'com.typemytype.robofont.guides'
p6
(tsS'width'
p7
I1146
sS'contours'
p8
(tsS'components'
p9
(tsS'anchors'
p10
(ts."
LayerCount: 2
Fore
SplineSet
545 629 m 0
 545 497 440 421 326 421 c 0
 213 421 109 496 109 629 c 0
 109 763 213 840 327 840 c 0
 434 840 545 763 545 629 c 0
326 495 m 0
 414 495 458 561 458 628 c 0
 458 696 412 764 326 764 c 0
 240 764 194 696 194 629 c 0
 194 556 238 495 326 495 c 0
EndSplineSet
EndChar

StartChar: s
Encoding: 115 115 96
Width: 812
VWidth: 0
Flags: W
PickledData: "(dp1
S'com.typemytype.robofont.layerData'
p2
(dp3
S'back'
p4
(dp5
S'name'
p6
S's'
sS'lib'
p7
(dp8
sS'unicodes'
p9
(tsS'width'
p10
F812
sS'contours'
p11
((dp12
S'points'
p13
((dp14
S'segmentType'
p15
S'line'
p16
sS'x'
F684
sS'smooth'
p17
I00
sS'y'
F779
s(dp18
S'y'
F802
sS'x'
F634
sg17
I00
s(dp19
S'y'
F840
sS'x'
F539
sg17
I00
s(dp20
g15
S'curve'
p21
sS'x'
F418
sg17
I01
sS'y'
F840
s(dp22
S'y'
F840
sS'x'
F231
sg17
I00
s(dp23
S'y'
F735
sS'x'
F144
sg17
I00
s(dp24
g15
S'curve'
p25
sS'x'
F144
sg17
I01
sS'y'
F631
s(dp26
S'y'
F563
sS'x'
F144
sg17
I00
s(dp27
S'y'
F483
sS'x'
F185
sg17
I00
s(dp28
g15
S'curve'
p29
sS'x'
F274
sg17
I01
sS'y'
F437
s(dp30
g15
S'line'
p31
sS'x'
F521
sg17
I01
sS'y'
F309
s(dp32
S'y'
F279
sS'x'
F580
sg17
I00
s(dp33
S'y'
F244
sS'x'
F604
sg17
I00
s(dp34
g15
S'curve'
p35
sS'x'
F604
sg17
I01
sS'y'
F194
s(dp36
S'y'
F127
sS'x'
F604
sg17
I00
s(dp37
S'y'
F81
sS'x'
F550
sg17
I00
s(dp38
g15
S'curve'
p39
sS'x'
F464
sg17
I01
sS'y'
F81
s(dp40
S'y'
F81
sS'x'
F374
sg17
I00
s(dp41
S'y'
F115
sS'x'
F229
sg17
I00
s(dp42
g15
S'curve'
p43
sS'x'
F134
sg17
I00
sS'y'
F174
s(dp44
g15
S'line'
p45
sS'x'
F122
sg17
I00
sS'y'
F77
s(dp46
S'y'
F46
sS'x'
F170
sg17
I00
s(dp47
S'y'
F-16
sS'x'
F295
sg17
I00
s(dp48
g15
S'curve'
p49
sS'x'
F466
sg17
I01
sS'y'
F-16
s(dp50
S'y'
F-16
sS'x'
F649
sg17
I00
s(dp51
S'y'
F94
sS'x'
F721
sg17
I00
s(dp52
g15
S'curve'
p53
sS'x'
F721
sg17
I01
sS'y'
F198
s(dp54
S'y'
F263
sS'x'
F721
sg17
I00
s(dp55
S'y'
F337
sS'x'
F690
sg17
I00
s(dp56
g15
S'curve'
p57
sS'x'
F608
sg17
I01
sS'y'
F380
s(dp58
g15
S'line'
p59
sS'x'
F339
sg17
I01
sS'y'
F521
s(dp60
S'y'
F549
sS'x'
F286
sg17
I00
s(dp61
S'y'
F577
sS'x'
F262
sg17
I00
s(dp62
g15
S'curve'
p63
sS'x'
F262
sg17
I01
sS'y'
F635
s(dp64
S'y'
F695
sS'x'
F262
sg17
I00
s(dp65
S'y'
F742
sS'x'
F322
sg17
I00
s(dp66
g15
S'curve'
p67
sS'x'
F424
sg17
I01
sS'y'
F742
s(dp68
S'y'
F742
sS'x'
F524
sg17
I00
s(dp69
S'y'
F714
sS'x'
F600
sg17
I00
s(dp70
g15
S'curve'
p71
sS'x'
F658
sg17
I00
sS'y'
F692
stp72
stp73
sS'components'
p74
(tsS'anchors'
p75
(tsss."
LayerCount: 2
Fore
SplineSet
684 779 m 1
 634 802 539 840 418 840 c 0
 231 840 144 735 144 631 c 0
 144 563 171 491 291 428 c 2
 509 315 l 2
 580 278 604 244 604 194 c 0
 604 127 550 81 464 81 c 0
 374 81 229 115 134 174 c 1
 120 75 l 1
 168 44 295 -16 466 -16 c 0
 649 -16 721 94 721 198 c 0
 721 263 692 337 576 398 c 2
 355 514 l 2
 288 549 262 578 262 636 c 0
 262 696 322 743 424 743 c 0
 524 743 600 712 658 690 c 1
 684 779 l 1
EndSplineSet
EndChar

StartChar: seven
Encoding: 55 55 98
Width: 987
VWidth: 0
Flags: W
PickledData: "(dp1
S'com.typemytype.robofont.layerData'
p2
(dp3
S'back'
p4
(dp5
S'name'
p6
S'seven'
p7
sS'lib'
p8
(dp9
sS'unicodes'
p10
(tsS'width'
p11
I987
sS'contours'
p12
(tsS'components'
p13
(tsS'anchors'
p14
(tsss."
LayerCount: 2
Fore
SplineSet
301 0 m 1
 428 0 l 1
 827 1142 l 1
 827 1241 l 1
 189 1241 l 1
 189 1135 l 1
 687 1135 l 1
 301 0 l 1
EndSplineSet
EndChar

StartChar: sterling
Encoding: 163 163 101
Width: 1128
VWidth: 0
Flags: W
PickledData: "(dp1
S'com.typemytype.robofont.layerData'
p2
(dp3
S'back'
p4
(dp5
S'name'
p6
S'sterling'
p7
sS'lib'
p8
(dp9
sS'unicodes'
p10
(tsS'width'
p11
I1128
sS'contours'
p12
((dp13
S'points'
p14
((dp15
S'segmentType'
p16
S'line'
p17
sS'x'
F279
sS'smooth'
p18
I00
sS'y'
F666
s(dp19
g16
S'line'
p20
sS'x'
F279
sg18
I00
sS'y'
F568
s(dp21
g16
S'line'
p22
sS'x'
F783
sg18
I00
sS'y'
F568
s(dp23
g16
S'line'
p24
sS'x'
F783
sg18
I00
sS'y'
F666
stp25
s(dp26
g14
((dp27
S'y'
F78
sS'x'
F475
sg18
I00
s(dp28
S'y'
F-22
sS'x'
F636
sg18
I00
s(dp29
g16
S'curve'
p30
sS'x'
F799
sg18
I01
sS'y'
F-22
s(dp31
S'y'
F-22
sS'x'
F954
sg18
I00
s(dp32
S'y'
F64
sS'x'
F1105
sg18
I00
s(dp33
g16
S'curve'
p34
sS'x'
F1105
sg18
I00
sS'y'
F269
s(dp35
g16
S'line'
p36
sS'x'
F982
sg18
I00
sS'y'
F269
s(dp37
S'y'
F144
sS'x'
F982
sg18
I00
s(dp38
S'y'
F85
sS'x'
F897
sg18
I00
s(dp39
g16
S'curve'
p40
sS'x'
F796
sg18
I01
sS'y'
F85
s(dp41
S'y'
F85
sS'x'
F666
sg18
I00
s(dp42
S'y'
F167
sS'x'
F542
sg18
I00
s(dp43
g16
S'curve'
p44
sS'x'
F502
sg18
I00
sS'y'
F268
s(dp45
S'y'
F268
sS'x'
F502
sg18
I00
s(dp46
S'y'
F224
sS'x'
F406
sg18
I00
s(dp47
g16
S'curve'
p48
sS'x'
F406
sg18
I00
sS'y'
F224
stp49
s(dp50
g14
((dp51
S'y'
F307
sS'x'
F435
sg18
I00
s(dp52
S'y'
F169
sS'x'
F389
sg18
I00
s(dp53
g16
S'curve'
p54
sS'x'
F262
sg18
I01
sS'y'
F0
s(dp55
S'y'
F0
sS'x'
F262
sg18
I00
s(dp56
S'y'
F0
sS'x'
F404
sg18
I00
s(dp57
g16
S'curve'
p58
sS'x'
F404
sg18
I01
sS'y'
F0
s(dp59
S'y'
F156
sS'x'
F519
sg18
I00
s(dp60
S'y'
F297
sS'x'
F554
sg18
I00
s(dp61
g16
S'curve'
p62
sS'x'
F554
sg18
I01
sS'y'
F423
s(dp63
S'y'
F600
sS'x'
F554
sg18
I00
s(dp64
S'y'
F801
sS'x'
F446
sg18
I00
s(dp65
g16
S'curve'
p66
sS'x'
F446
sg18
I01
sS'y'
F924
s(dp67
S'y'
F1089
sS'x'
F446
sg18
I00
s(dp68
S'y'
F1166
sS'x'
F581
sg18
I00
s(dp69
g16
S'curve'
p70
sS'x'
F698
sg18
I01
sS'y'
F1166
s(dp71
S'y'
F1166
sS'x'
F824
sg18
I00
s(dp72
S'y'
F1084
sS'x'
F906
sg18
I00
s(dp73
g16
S'curve'
p74
sS'x'
F930
sg18
I00
sS'y'
F1065
s(dp75
g16
S'line'
p76
sS'x'
F991
sg18
I00
sS'y'
F1148
s(dp77
S'y'
F1193
sS'x'
F950
sg18
I00
s(dp78
S'y'
F1274
sS'x'
F839
sg18
I00
s(dp79
g16
S'curve'
p80
sS'x'
F695
sg18
I01
sS'y'
F1274
s(dp81
S'y'
F1274
sS'x'
F520
sg18
I00
s(dp82
S'y'
F1164
sS'x'
F327
sg18
I00
s(dp83
g16
S'curve'
p84
sS'x'
F327
sg18
I01
sS'y'
F920
s(dp85
S'y'
F797
sS'x'
F327
sg18
I00
s(dp86
S'y'
F600
sS'x'
F435
sg18
I00
s(dp87
g16
S'curve'
p88
sS'x'
F435
sg18
I01
sS'y'
F425
stp89
stp90
sS'components'
p91
(tsS'anchors'
p92
(tsss."
LayerCount: 2
Fore
SplineSet
799 -22 m 0
 954 -22 1105 64 1105 269 c 1
 982 269 l 1
 982 144 897 85 796 85 c 0
 684 85 577 146 523 227 c 1
 546 296 554 361 554 423 c 0
 554 470 546 519 535 568 c 1
 783 568 l 1
 783 666 l 1
 508 666 l 1
 479 764 446 856 446 924 c 0
 446 1089 581 1166 698 1166 c 0
 824 1166 906 1084 930 1065 c 1
 991 1148 l 1
 950 1193 839 1274 695 1274 c 0
 520 1274 327 1164 327 920 c 0
 327 852 360 762 389 666 c 1
 279 666 l 1
 279 568 l 1
 416 568 l 1
 427 520 435 472 435 425 c 0
 435 307 389 169 262 0 c 1
 404 0 l 1
 434 41 458 80 478 119 c 1
 560 32 679 -22 799 -22 c 0
EndSplineSet
EndChar

StartChar: t
Encoding: 116 116 102
Width: 708
VWidth: 0
Flags: W
PickledData: "(dp1
S'com.typemytype.robofont.layerData'
p2
(dp3
S'back'
p4
(dp5
S'name'
p6
S't'
sS'lib'
p7
(dp8
sS'unicodes'
p9
(tsS'width'
p10
I708
sS'contours'
p11
(tsS'components'
p12
(tsS'anchors'
p13
(tsss."
LayerCount: 2
Fore
SplineSet
444 -16 m 0
 557 -16 620 19 653 39 c 1
 653 132 l 1
 622 118 554 81 461 81 c 0
 389 81 328 102 328 208 c 2
 328 726 l 1
 608 726 l 1
 608 824 l 1
 328 824 l 1
 328 997 l 1
 99 747 l 2
 97 745 95 741 95 738 c 0
 95 732 100 726 111 726 c 2
 200 726 l 1
 200 191 l 2
 200 57 311 -16 444 -16 c 0
EndSplineSet
EndChar

StartChar: thorn
Encoding: 254 254 103
Width: 1074
VWidth: 0
Flags: W
PickledData: "(dp1
S'name'
p2
S'd'
sS'com.typemytype.robofont.layerData'
p3
(dp4
sS'unicodes'
p5
(tsS'width'
p6
I1113
sS'contours'
p7
(tsS'components'
p8
(tsS'anchors'
p9
(ts."
LayerCount: 2
Fore
SplineSet
165 -417 m 1
 293 -396 l 1
 293 38 l 1
 293 38 388 -16 567 -16 c 0
 820 -16 966 171 966 410 c 0
 966 654 805 839 572 839 c 0
 459 839 363 806 293 745 c 1
 293 1241 l 1
 165 1241 l 1
 165 -417 l 1
544 81 m 0
 404 81 293 128 293 128 c 1
 293 649 l 1
 305 661 411 743 539 743 c 0
 731 743 839 623 839 412 c 0
 839 241 757 81 544 81 c 0
EndSplineSet
EndChar

StartChar: three
Encoding: 51 51 104
Width: 901
VWidth: 0
Flags: W
PickledData: "(dp1
S'com.typemytype.robofont.layerData'
p2
(dp3
S'back'
p4
(dp5
S'name'
p6
S'three'
p7
sS'lib'
p8
(dp9
sS'unicodes'
p10
(tsS'width'
p11
I901
sS'contours'
p12
((dp13
S'points'
p14
((dp15
S'segmentType'
p16
S'curve'
p17
sS'x'
F383
sS'smooth'
p18
I01
sS'y'
F308
s(dp19
S'y'
F308
sS'x'
F701
sg18
I00
s(dp20
S'y'
F521
sS'x'
F901
sg18
I00
s(dp21
g16
S'curve'
p22
sS'x'
F901
sg18
I01
sS'y'
F961
s(dp23
S'y'
F1423
sS'x'
F901
sg18
I00
s(dp24
S'y'
F1616
sS'x'
F707
sg18
I00
s(dp25
g16
S'curve'
p26
sS'x'
F383
sg18
I01
sS'y'
F1616
s(dp27
S'y'
F1616
sS'x'
F59
sg18
I00
s(dp28
S'y'
F1423
sS'x'
F-136
sg18
I00
s(dp29
g16
S'curve'
p30
sS'x'
F-136
sg18
I01
sS'y'
F961
s(dp31
S'y'
F521
sS'x'
F-136
sg18
I00
s(dp32
S'y'
F308
sS'x'
F65
sg18
I00
stp33
s(dp34
g14
((dp35
g16
S'curve'
p36
sS'x'
F383
sg18
I01
sS'y'
F415
s(dp37
S'y'
F415
sS'x'
F140
sg18
I00
s(dp38
S'y'
F564
sS'x'
F-6
sg18
I00
s(dp39
g16
S'curve'
p40
sS'x'
F-6
sg18
I01
sS'y'
F961
s(dp41
S'y'
F1353
sS'x'
F-6
sg18
I00
s(dp42
S'y'
F1509
sS'x'
F140
sg18
I00
s(dp43
g16
S'curve'
p44
sS'x'
F383
sg18
I01
sS'y'
F1509
s(dp45
S'y'
F1509
sS'x'
F626
sg18
I00
s(dp46
S'y'
F1353
sS'x'
F771
sg18
I00
s(dp47
g16
S'curve'
p48
sS'x'
F771
sg18
I01
sS'y'
F961
s(dp49
S'y'
F564
sS'x'
F771
sg18
I00
s(dp50
S'y'
F415
sS'x'
F626
sg18
I00
stp51
stp52
sS'components'
p53
(tsS'anchors'
p54
(tsss."
LayerCount: 2
Fore
SplineSet
409 -33 m 0
 657 -33 797 106 797 304 c 0
 797 486 658 613 508 663 c 1
 632 703 771 799 771 961 c 0
 771 1183 597 1275 418 1275 c 0
 313 1275 195 1242 121 1192 c 1
 161 1097 l 1
 222 1142 323 1173 410 1173 c 0
 529 1173 654 1115 654 962 c 0
 654 808 482 739 297 680 c 1
 297 640 l 1
 569 565 678 455 678 299 c 0
 678 161 567 70 419 70 c 0
 342 70 245 94 151 142 c 1
 121 47 l 1
 204 -3 323 -33 409 -33 c 0
EndSplineSet
EndChar

StartChar: tilde
Encoding: 732 732 105
Width: 1080
VWidth: 0
Flags: W
PickledData: "(dp1
S'com.typemytype.robofont.layerData'
p2
(dp3
s."
LayerCount: 2
Fore
SplineSet
808 426 m 1
 808 587 745 634 659 634 c 0
 559 634 413 524 349 524 c 0
 304 524 285 549 285 620 c 1
 187 620 l 1
 187 462 261 412 337 412 c 0
 462 412 570 518 654 518 c 0
 694 518 710 486 710 426 c 1
 808 426 l 1
EndSplineSet
EndChar

StartChar: two
Encoding: 50 50 106
Width: 940
VWidth: 0
Flags: W
PickledData: "(dp1
S'com.typemytype.robofont.layerData'
p2
(dp3
S'back'
p4
(dp5
S'name'
p6
S'two'
p7
sS'lib'
p8
(dp9
sS'unicodes'
p10
(tsS'width'
p11
I940
sS'contours'
p12
((dp13
S'points'
p14
((dp15
S'segmentType'
p16
S'curve'
p17
sS'x'
F481
sS'smooth'
p18
I01
sS'y'
F-34
s(dp19
S'y'
F-34
sS'x'
F799
sg18
I00
s(dp20
S'y'
F179
sS'x'
F999
sg18
I00
s(dp21
g16
S'curve'
p22
sS'x'
F999
sg18
I01
sS'y'
F619
s(dp23
S'y'
F1081
sS'x'
F999
sg18
I00
s(dp24
S'y'
F1274
sS'x'
F805
sg18
I00
s(dp25
g16
S'curve'
p26
sS'x'
F481
sg18
I01
sS'y'
F1274
s(dp27
S'y'
F1274
sS'x'
F157
sg18
I00
s(dp28
S'y'
F1081
sS'x'
F-38
sg18
I00
s(dp29
g16
S'curve'
p30
sS'x'
F-38
sg18
I01
sS'y'
F619
s(dp31
S'y'
F179
sS'x'
F-38
sg18
I00
s(dp32
S'y'
F-34
sS'x'
F163
sg18
I00
stp33
s(dp34
g14
((dp35
g16
S'curve'
p36
sS'x'
F481
sg18
I01
sS'y'
F73
s(dp37
S'y'
F73
sS'x'
F238
sg18
I00
s(dp38
S'y'
F222
sS'x'
F92
sg18
I00
s(dp39
g16
S'curve'
p40
sS'x'
F92
sg18
I01
sS'y'
F619
s(dp41
S'y'
F1011
sS'x'
F92
sg18
I00
s(dp42
S'y'
F1167
sS'x'
F238
sg18
I00
s(dp43
g16
S'curve'
p44
sS'x'
F481
sg18
I01
sS'y'
F1167
s(dp45
S'y'
F1167
sS'x'
F724
sg18
I00
s(dp46
S'y'
F1011
sS'x'
F869
sg18
I00
s(dp47
g16
S'curve'
p48
sS'x'
F869
sg18
I01
sS'y'
F619
s(dp49
S'y'
F222
sS'x'
F869
sg18
I00
s(dp50
S'y'
F73
sS'x'
F724
sg18
I00
stp51
stp52
sS'components'
p53
(tsS'anchors'
p54
(tsss."
LayerCount: 2
Fore
SplineSet
94 0 m 1
 835 0 l 1
 835 106 l 1
 319 106 l 1
 626 503 l 2
 741 652 823 763 823 920 c 0
 823 1136 674 1274 473 1274 c 0
 335 1274 197 1214 135 1160 c 1
 185 1058 l 1
 234 1101 353 1167 469 1167 c 0
 592 1167 698 1090 698 935 c 0
 698 795.870563862 624.094026278 701.100516753 538 587 c 2
 94 0 l 1
EndSplineSet
EndChar

StartChar: u
Encoding: 117 117 107
Width: 1106
VWidth: 0
Flags: W
PickledData: "(dp1
S'com.typemytype.robofont.layerData'
p2
(dp3
S'back'
p4
(dp5
S'name'
p6
S'u'
sS'lib'
p7
(dp8
sS'unicodes'
p9
(tsS'width'
p10
I1106
sS'contours'
p11
(tsS'components'
p12
(tsS'anchors'
p13
(tsss."
LayerCount: 2
Fore
SplineSet
813 824 m 1
 813 229 l 1
 813 229 691 82 502 82 c 0
 356 82 277 134 277 265 c 2
 277 824 l 1
 149 824 l 1
 149 244 l 2
 149 92 289 -16 464 -16 c 0
 705 -16 816 130 816 130 c 1
 816 0 l 1
 941 0 l 1
 941 824 l 1
 813 824 l 1
EndSplineSet
EndChar

StartChar: underscore
Encoding: 95 95 110
Width: 1009
VWidth: 0
Flags: W
PickledData: "(dp1
S'com.typemytype.robofont.layerData'
p2
(dp3
S'back'
p4
(dp5
S'name'
p6
S'underscore'
p7
sS'lib'
p8
(dp9
sS'unicodes'
p10
(tsS'width'
p11
I1009
sS'contours'
p12
(tsS'components'
p13
(tsS'anchors'
p14
(tsss."
LayerCount: 2
Fore
SplineSet
198 -93 m 1
 871 -93 l 1
 871 0 l 1
 198 0 l 1
 198 -93 l 1
EndSplineSet
EndChar

StartChar: v
Encoding: 118 118 111
Width: 912
VWidth: 0
Flags: W
PickledData: "(dp1
S'com.typemytype.robofont.guides'
p2
((dp3
S'angle'
p4
F90
sS'name'
p5
NsS'magnetic'
p6
I5
sS'isGlobal'
p7
I00
sS'y'
I147
sS'x'
I529
stp8
sS'com.typemytype.robofont.layerData'
p9
(dp10
S'back'
p11
(dp12
g5
S'v'
sS'lib'
p13
(dp14
sS'unicodes'
p15
(tsS'width'
p16
I912
sS'contours'
p17
(tsS'components'
p18
(tsS'anchors'
p19
(tsss."
LayerCount: 2
Fore
SplineSet
462 -32 m 1
 864 824 l 1
 737 824 l 1
 463 207 l 1
 178 824 l 1
 48 824 l 1
 462 -32 l 1
EndSplineSet
EndChar

StartChar: w
Encoding: 119 119 112
Width: 1267
VWidth: 0
Flags: W
PickledData: "(dp1
S'com.typemytype.robofont.layerData'
p2
(dp3
S'back'
p4
(dp5
S'name'
p6
S'w'
sS'lib'
p7
(dp8
sS'unicodes'
p9
(tsS'width'
p10
I1267
sS'contours'
p11
(tsS'components'
p12
(tsS'anchors'
p13
(tsss."
LayerCount: 2
Fore
SplineSet
639 601 m 1
 903 -19 l 1
 1224 824 l 1
 1105 824 l 1
 899 249 l 1
 636 847 l 1
 380 252 l 1
 161 824 l 1
 43 824 l 1
 370 -19 l 1
 639 601 l 1
EndSplineSet
EndChar

StartChar: x
Encoding: 120 120 113
Width: 967
VWidth: 0
Flags: W
PickledData: "(dp1
S'com.typemytype.robofont.layerData'
p2
(dp3
S'back'
p4
(dp5
S'name'
p6
S'x'
sS'lib'
p7
(dp8
sS'unicodes'
p9
(tsS'width'
p10
I967
sS'contours'
p11
(tsS'components'
p12
(tsS'anchors'
p13
(tsss."
LayerCount: 2
Fore
SplineSet
484 352 m 1
 783 0 l 1
 914 0 l 1
 558 414 l 1
 906 824 l 1
 756 824 l 1
 480 488 l 1
 188 824 l 1
 54 824 l 1
 408 425 l 1
 53 0 l 1
 198 0 l 1
 484 352 l 1
EndSplineSet
EndChar

StartChar: y
Encoding: 121 121 114
Width: 923
VWidth: 0
Flags: W
PickledData: "(dp1
S'com.typemytype.robofont.layerData'
p2
(dp3
S'back'
p4
(dp5
S'name'
p6
S'y'
sS'lib'
p7
(dp8
sS'unicodes'
p9
(tsS'width'
p10
I923
sS'contours'
p11
(tsS'components'
p12
(tsS'anchors'
p13
(tsss."
LayerCount: 2
Fore
SplineSet
892 824 m 1
 760 824 l 1
 487 300 l 1
 165 824 l 1
 29 824 l 1
 421 205 l 1
 190 -244 l 1
 326 -244 l 1
 892 824 l 1
EndSplineSet
EndChar

StartChar: yen
Encoding: 165 165 115
Width: 1259
VWidth: 0
Flags: W
PickledData: "(dp1
S'com.typemytype.robofont.layerData'
p2
(dp3
S'back'
p4
(dp5
S'name'
p6
S'yen'
p7
sS'lib'
p8
(dp9
sS'unicodes'
p10
(tsS'width'
p11
I1259
sS'contours'
p12
((dp13
S'points'
p14
((dp15
S'segmentType'
p16
S'line'
p17
sS'x'
F310
sS'smooth'
p18
I00
sS'y'
F647
s(dp19
g16
S'line'
p20
sS'x'
F507
sg18
I00
sS'y'
F647
s(dp21
g16
S'line'
p22
sS'x'
F507
sg18
I00
sS'y'
F740
s(dp23
g16
S'line'
p24
sS'x'
F310
sg18
I00
sS'y'
F740
stp25
stp26
sS'components'
p27
(tsS'anchors'
p28
(tsss."
LayerCount: 2
Fore
SplineSet
698 437 m 1
 950 437 l 1
 950 530 l 1
 728 530 l 1
 791 647 l 1
 990 647 l 1
 990 740 l 1
 841 740 l 1
 1112 1241 l 1
 976 1241 l 1
 636 592 l 1
 272 1241 l 1
 143 1241 l 1
 424 740 l 1
 270 740 l 1
 270 647 l 1
 476 647 l 1
 541 530 l 1
 310 530 l 1
 310 437 l 1
 570 437 l 1
 570 0 l 1
 698 0 l 1
 698 437 l 1
EndSplineSet
EndChar

StartChar: z
Encoding: 122 122 116
Width: 860
VWidth: 0
Flags: W
PickledData: "(dp1
S'com.typemytype.robofont.layerData'
p2
(dp3
S'back'
p4
(dp5
S'name'
p6
S'z'
sS'lib'
p7
(dp8
sS'unicodes'
p9
(tsS'width'
p10
I860
sS'contours'
p11
(tsS'components'
p12
(tsS'anchors'
p13
(tsss."
LayerCount: 2
Fore
SplineSet
756 98 m 1
 298 98 l 1
 784 824 l 1
 140.046875 824 l 1
 140 726 l 1
 592 726 l 1
 97 0 l 1
 756 0 l 1
 756 98 l 1
EndSplineSet
EndChar

StartChar: zero
Encoding: 48 48 117
Width: 1239
VWidth: 0
Flags: W
PickledData: "(dp1
S'com.typemytype.robofont.guides'
p2
((dp3
S'angle'
p4
F90
sS'name'
p5
NsS'magnetic'
p6
I5
sS'isGlobal'
p7
I00
sS'y'
I1213
sS'x'
I620
s(dp8
g4
I0
sg5
Nsg6
I5
sg7
I00
sS'y'
I619
sS'x'
I158
stp9
sS'com.typemytype.robofont.layerData'
p10
(dp11
S'back'
p12
(dp13
g5
S'zero'
p14
sS'lib'
p15
(dp16
sS'unicodes'
p17
(tsS'width'
p18
I1239
sS'contours'
p19
((dp20
S'points'
p21
((dp22
S'segmentType'
p23
S'curve'
p24
sS'x'
F471
sS'smooth'
p25
I01
sS'y'
F-38
s(dp26
S'y'
F-38
sS'x'
F809
sg25
I00
s(dp27
S'y'
F178
sS'x'
F1138
sg25
I00
s(dp28
g23
S'curve'
p29
sS'x'
F1138
sg25
I01
sS'y'
F619
s(dp30
S'y'
F1054
sS'x'
F1138
sg25
I00
s(dp31
S'y'
F1270
sS'x'
F809
sg25
I00
s(dp32
g23
S'curve'
p33
sS'x'
F470
sg25
I01
sS'y'
F1270
s(dp34
S'y'
F1270
sS'x'
F133
sg25
I00
s(dp35
S'y'
F1054
sS'x'
F-195
sg25
I00
s(dp36
g23
S'curve'
p37
sS'x'
F-195
sg25
I01
sS'y'
F615
s(dp38
S'y'
F178
sS'x'
F-195
sg25
I00
s(dp39
S'y'
F-38
sS'x'
F133
sg25
I00
stp40
s(dp41
g21
((dp42
g23
S'curve'
p43
sS'x'
F470
sg25
I01
sS'y'
F1164
s(dp44
S'y'
F1164
sS'x'
F755
sg25
I00
s(dp45
S'y'
F990
sS'x'
F1008
sg25
I00
s(dp46
g23
S'curve'
p47
sS'x'
F1008
sg25
I01
sS'y'
F614
s(dp48
S'y'
F242
sS'x'
F1008
sg25
I00
s(dp49
S'y'
F68
sS'x'
F728
sg25
I00
s(dp50
g23
S'curve'
p51
sS'x'
F470
sg25
I01
sS'y'
F68
s(dp52
S'y'
F68
sS'x'
F196
sg25
I00
s(dp53
S'y'
F241
sS'x'
F-65
sg25
I00
s(dp54
g23
S'curve'
p55
sS'x'
F-65
sg25
I01
sS'y'
F615
s(dp56
S'y'
F990
sS'x'
F-65
sg25
I00
s(dp57
S'y'
F1164
sS'x'
F183
sg25
I00
stp58
stp59
sS'components'
p60
(tsS'anchors'
p61
(tsss."
LayerCount: 2
Fore
SplineSet
620 73 m 0
 377 73 231 222 231 619 c 0
 231 1011 377 1167 620 1167 c 0
 863 1167 1008 1011 1008 619 c 0
 1008 222 863 73 620 73 c 0
620 -34 m 0
 938 -34 1138 179 1138 619 c 0
 1138 1081 944 1274 620 1274 c 0
 296 1274 101 1081 101 619 c 0
 101 179 302 -34 620 -34 c 0
EndSplineSet
EndChar
